<?xml version="1.0" encoding="UTF-8"?>
<svg width="192px" height="146px" viewBox="0 0 192 146" version="1.1" xmlns="http://www.w3.org/2000/svg" xmlns:xlink="http://www.w3.org/1999/xlink">
    <title>graphic/icon</title>
    <defs>
        <filter id="filter-1">
            <feColorMatrix in="SourceGraphic" type="matrix" values="0 0 0 0 0.631373 0 0 0 0 0.631373 0 0 0 0 0.631373 0 0 0 1.000000 0"></feColorMatrix>
        </filter>
        <path d="M27.2666528,1.60245939e-14 L26.3588252,0.872504136 C18.9259168,3.02486894 8.42587979,6.06524281 3.96709915e-15,8.50515341 L0.907827621,7.63264927" id="path-2"></path>
        <path d="M3.32220868,1.36753811 L2.41138895,2.23251792 C2.03176399,1.24349061 0.949762813,0.659852745 0,0.931136789 L0.911099902,0.0667157453" id="path-4"></path>
        <path d="M0.910819736,0 C0.920905712,0.00391140744 0.930711523,0.00810220112 0.940517334,0.0120136086 L0.0296975983,0.876993425 C0.0196116215,0.872802631 0.00980581075,0.868891224 -3.1851189e-14,0.864979817 C0.00140083011,0.863582885 0.00364215828,0.861627182 0.00504298839,0.859950864 L0.00756448258,0.857436388 L0.00756448258,0.857436388 C0.00924547871,0.856039457 0.0114868069,0.853804367 0.012887637,0.852686822 L0.0184909574,0.847099097 L0.0184909574,0.847099097 L0.0240942778,0.842070144 L0.0240942778,0.842070144 L0.0294174322,0.836761806 C0.0310984284,0.835364875 0.0333397565,0.833129785 0.0347405867,0.831732853 C0.0364215828,0.830335922 0.0383827449,0.828380218 0.039783575,0.826983287 C0.0554728722,0.81189643 0.0764853238,0.792339393 0.092174621,0.777252535 C0.123553215,0.747637593 0.165578119,0.70768536 0.196956713,0.678070418 C0.229736138,0.646499772 0.273722203,0.604871222 0.306781793,0.573859349 C0.340681882,0.541450544 0.385788611,0.498704449 0.4196887,0.46657503 C0.453868955,0.434166226 0.499536016,0.390581971 0.533716271,0.358173167 C0.567336193,0.326043749 0.612723089,0.283297653 0.646623177,0.250888849 C0.679402602,0.219876975 0.723388667,0.178248425 0.756448258,0.146677779 C0.787826852,0.117062837 0.829571589,0.0771106038 0.86123035,0.0474956618" id="path-6"></path>
        <path d="M0.910819736,0 C1.11169877,0.0762724451 1.31145715,0.155059366 1.50981469,0.235522605 C1.20639489,0.523849211 0.902694921,0.81189643 0.598994954,1.10050242 C0.400357245,1.01948041 0.200879037,0.940972875 3.1851189e-14,0.864979817" id="path-8"></path>
        <path d="M0.910819736,0 C1.62284167,0.197805462 2.33342274,0.425784638 3.0404458,0.684113469 L3.39365102,0.815807837 L3.39365102,0.815807837 C3.39477168,0.816087224 3.39589235,0.816645996 3.39729318,0.817204769 L3.41410314,0.823351266 L3.41410314,0.823351266 C3.11068334,1.11167787 2.80698337,1.40000448 2.5032834,1.68833108 C2.49768008,1.68609599 2.49207676,1.6838609 2.48619327,1.68162581 C1.66194484,1.36815444 0.831812918,1.09603224 0,0.86470043 C0.0319389264,0.834526716 0.0745241617,0.79401571 0.106463088,0.763562609 C0.122992883,0.74791698 0.145406165,0.726683625 0.162216126,0.710758609 C0.196676547,0.678070418 0.242903941,0.634206778 0.277364361,0.601239201 C0.312945446,0.567712851 0.360293504,0.522731666 0.395874588,0.48892593 C0.431735839,0.455120194 0.479364063,0.409580236 0.515225313,0.3757745 C0.550806398,0.341689378 0.598154456,0.296708193 0.63373554,0.263181843 C0.668195961,0.230214266 0.714423355,0.186630012 0.748883775,0.153941821 C0.7816632,0.122371176 0.825649265,0.0810220112 0.858708856,0.0497307517" id="path-10"></path>
        <path d="M0.910819736,0 C0.914181728,0.000838158737 0.91754372,0.00195570372 0.920905712,0.00279386246 C0.617205745,0.291120468 0.313785944,0.579167687 0.0100859768,0.867494293 C0.00672398451,0.866656134 0.00336199226,0.865817975 -3.1851189e-14,0.86470043" id="path-12"></path>
        <path d="M1.37936502,0 C0.935021712,0.421593845 0.777568408,1.10720769 1.03420048,1.77577898 L0.123380748,2.64075879 C-0.133251327,1.97190812 0.0242019768,1.28657366 0.468265121,0.86470043" id="path-14"></path>
        <path d="M23.5768112,1.60084696 C30.6442793,4.28519001 36.253203,9.87878204 38.9652101,16.9455777 L38.0541102,17.8105576 C35.3423833,10.7437619 29.7334595,5.14989044 22.6657113,2.46554739 C17.8496574,0.634170554 12.8453319,0.36875362 8.19989911,1.69723522 C4.98779568,2.61557781 2.22451821,4.23043031 0,6.34231094 L0.910819736,5.47761051 C3.13533795,3.36572988 5.89861541,1.75087738 9.11071885,0.832255402" id="path-16"></path>
        <path d="M0.910819736,0 C1.26382892,0.920018907 2.26794394,1.46174884 3.15130741,1.20918367 C3.39253035,1.14017527 3.59985321,1.01920102 3.76655199,0.860789023 L2.85573226,1.72548945 C2.68903347,1.88390145 2.48171062,2.0048757 2.24048767,2.07416349 C1.35712421,2.32644927 0.353009187,1.78443995 0,0.86470043" id="path-18"></path>
        <path d="M0.91053957,0 C0.926789199,0.00139693123 0.943038828,0.00279386246 0.959568623,0.00447017993 L0.0484687217,0.86917061 L0,0.864979817" id="path-20"></path>
        <path d="M0.910819736,0 C1.18874443,0.0223508997 1.46554846,0.0449811856 1.74347315,0.0681702439 C1.44005335,0.356776236 1.13635338,0.645102841 0.832933582,0.933150061 C0.554728722,0.909681616 0.277924693,0.887330716 -1.59255945e-14,0.864979817" id="path-22"></path>
        <path d="M0.910819736,0 C0.920625546,0.000838158737 0.930431357,0.00167631747 0.939957002,0.00223508997 C0.636537201,0.290561695 0.332837233,0.578888301 0.0291372662,0.867214907 C0.0193314555,0.866376748 0.00980581075,0.865538589 0,0.86470043" id="path-24"></path>
        <path d="M6.37293649,-1.58812694e-14 C3.94529791,2.30437775 2.09340051,5.13958938 0.910819736,8.29665395 L0,9.16135438 C1.18258078,6.00401042 3.03447818,3.16907818 5.46183659,0.86470043" id="path-26"></path>
        <path d="M5.51730946,0 C8.93365392,8.90264272 6.83156827,18.0436019 0.910819736,23.6642944 L-3.1851189e-14,24.5292742 C5.92074853,18.9085817 8.02283419,9.76762253 4.60648972,0.864979817" id="path-28"></path>
        <path d="M110.253174,0.591584024 C110.847126,0.636565209 111.442479,0.684340257 112.036991,0.734629781 L111.126171,1.59905083 C110.531659,1.54904069 109.936306,1.50154503 109.342354,1.45656384 C85.6061287,-0.343801127 62.2954752,1.96812006 40.0217162,8.33700891 C26.2403496,12.2780313 13.0773094,17.732489 0.880841971,24.5584537 C0.586667649,24.7230122 0.293053658,24.8884089 -3.98139863e-15,25.0546437 L0.910819736,24.1899433 C1.20415356,24.0237084 1.49748738,23.8583118 1.79166171,23.6934739 C13.9881291,16.8677885 27.1511693,11.4130515 40.9325359,7.47258787" id="path-30"></path>
        <path d="M1.61917748,0 C0.425390059,4.8222066 0.70275442,10.2090528 2.74096223,15.5201853 L1.82986232,16.3848858 C-0.208345482,11.0737532 -0.485429677,5.68662764 0.70835774,0.86470043 C0.719004049,0.846260938 0.744779323,0.830335922 0.76046862,0.816087224" id="path-32"></path>
        <path d="M0.910819736,0 C1.09516898,0.480544343 1.29436702,0.959691754 1.50617253,1.4340896 C1.71377555,1.8992677 1.93370588,2.35941684 2.16428252,2.81146379 C2.35563591,3.18667952 2.55427362,3.55630752 2.75991548,3.92062719 C9.18888517,15.3061755 22.488086,21.3199644 34.2093919,17.9681676 C37.7915946,16.9439376 40.8734209,15.1430139 43.354291,12.7877879 L42.4431911,13.6527677 C39.962321,16.0079937 36.8807749,17.8089175 33.2985721,18.8331474 C21.5772663,22.1846648 8.27806543,16.1708759 1.84909574,4.78532762 C1.64345388,4.42100795 1.44481617,4.05165933 1.25346278,3.67644361 C1.02260598,3.22411727 0.802675651,2.76368874 0.595352795,2.29851064 C0.383267117,1.82467157 0.184349242,1.34524477 0,0.864421044" id="path-34"></path>
        <path d="M12.0037132,4.93367684 C13.0002637,7.53085137 12.3903423,10.188094 10.6664808,11.8247386 L9.75566103,12.689439 C11.4792424,11.0530738 12.089444,8.39555181 11.0926133,5.79837727 C9.72120061,2.22446841 5.82661275,0.124601389 2.39457898,1.10608527 C1.45574265,1.37429607 0.648864506,1.84562066 -7.96279725e-15,2.46166733 L0.910819736,1.5969669 C1.55968424,0.980920232 2.36656238,0.509875021 3.30539872,0.241384839" id="path-36"></path>
        <path d="M4.09602723,0 C3.8225852,0.259549822 3.45836937,0.605429994 3.18492733,0.864979817 C2.12141711,1.14017527 1.05930773,1.42486985 0,1.71822541 L0.910819736,0.85352498" id="path-38"></path>
        <path d="M4.05372216,0 C3.78056029,0.259549822 3.46957601,0.676394101 3.14290243,0.864979817 C2.09171952,1.17481916 1.04361843,1.49387826 0,1.82131894 L0.910819736,0.956618505" id="path-40"></path>
        <path d="M1.57313221,0 L0.662312475,0.864979817 C0.402878739,0.939017172 0.179866586,1.06921116 4.97674828e-16,1.23991616 L0.911099902,0.375215728" id="path-42"></path>
        <path d="M2.16792467,0 C1.87739251,0.276033611 1.58714051,0.551787835 1.29660835,0.827262673 C1.2896042,0.83424733 1.28260005,0.840673213 1.27531573,0.847657869 C1.26943224,0.853245594 1.26102726,0.857157002 1.25710494,0.864979817 C0.83657574,1.09854672 0.418007704,1.33378994 0,1.57070947 C0.303699967,1.28238287 0.607399934,0.994056262 0.910819736,0.706009043" id="path-44"></path>
        <path d="M0.957607461,0 C0.65418766,0.288047219 0.350487693,0.576373825 0.0467877256,0.86470043 C0.0310984284,0.87364079 0.0154091312,0.882301764 0,0.891242124 L0.910819736,0.0265416933" id="path-46"></path>
        <path d="M2.13521707,0 C0.974489244,1.10189935 0.562925359,2.89360335 1.23280232,4.63976738 L0.32198258,5.50446781 C-0.348174543,3.75830378 0.0636695086,1.96659978 1.22439734,0.86470043" id="path-48"></path>
        <path d="M0.973576924,0 L0.0627571888,0.86470043 C0.0417447372,0.876434653 0.0207322856,0.887889489 0,0.899623711 C0.0305380963,0.870567541 0.0610761927,0.841511372 0.091894455,0.812455202 C0.123273049,0.782560874 0.165297953,0.742888027 0.196676547,0.712993699 C0.229736138,0.681702439 0.273722203,0.639794503 0.306501627,0.608503243 C0.329101686,0.587083631 0.356682475,0.560945495 0.38260302,0.53629742 L0.419408534,0.501218925 C0.453588789,0.46881012 0.49925585,0.425505252 0.533436105,0.393096448 C0.567336193,0.360967029 0.612442923,0.317941548 0.646343011,0.285812129 C0.679402602,0.254800256 0.723388667,0.212892319 0.756168092,0.18160106 C0.787826852,0.151706731 0.829571589,0.112033885 0.860950184,0.0821395562 C0.876079149,0.0681702439 0.89008745,0.0346438945 0.910819736,0.0346438945 L0.973576924,0" id="path-50"></path>
        <path d="M0.911099902,0 C1.83200561,2.40020724 4.45772157,3.81948936 6.76488875,3.15957905 L5.85406902,4.02427948 C3.54690183,4.68418979 0.921185878,3.26518705 0,0.864979817" id="path-52"></path>
    </defs>
    <g id="页面-2" stroke="none" stroke-width="1" fill="none" fill-rule="evenodd">
        <g id="首頁" transform="translate(-624.000000, -619.000000)">
            <g id="desgin-Category" transform="translate(268.000000, 545.000000)">
                <g id="graphic/icon" transform="translate(316.000000, 0.000000)" filter="url(#filter-1)">
                    <g transform="translate(40.000000, 74.000000)">
                        <g id="编组" transform="translate(19.862069, 1.891626)">
                            <path d="M27.2664574,0 L31.2118227,10.410849 C23.7786351,12.5632138 13.2788772,15.6038696 4.85299745,18.0434983 L0.907632209,7.63264927 L27.2664574,0 Z" id="Fill-1" fill="#FBFBFB"></path>
                            <g transform="translate(3.945170, 10.410905)">
                                <mask id="mask-3" fill="white">
                                    <use xlink:href="#path-2"></use>
                                </mask>
                                <g id="Clip-4"></g>
                                <path d="M27.2665691,-0.000140953818 L26.3590206,0.87264509 C18.925833,3.02472799 8.4260752,6.06538376 0.000195411849,8.50529436 L0.907743873,7.63250832 C9.33362366,5.19287963 19.8333815,2.15250576 27.2665691,-0.000140953818" id="Fill-3" fill="#A3A4A4" mask="url(#mask-3)"></path>
                            </g>
                            <polygon id="Fill-5" fill="#9FA0A0" points="4.8529137 18.0434701 3.94536524 18.9162562 3.96709915e-15 8.50512522 0.907548461 7.63262108"></polygon>
                        </g>
                        <g id="编组">
                            <g transform="translate(137.810376, 2.656656)">
                                <mask id="mask-5" fill="white">
                                    <use xlink:href="#path-4"></use>
                                </mask>
                                <g id="Clip-8"></g>
                                <path d="M3.32226471,1.36751017 L2.41144498,2.23248998 C2.03182002,1.24346267 0.949818846,0.659824806 5.60332043e-05,0.931108851 L0.910875769,0.0666878067 C1.86091875,-0.20515501 2.94263976,0.378482857 3.32226471,1.36751017" id="Fill-7" fill="#A3A4A4" mask="url(#mask-5)"></path>
                            </g>
                            <g transform="translate(162.226004, 54.315115)">
                                <mask id="mask-7" fill="white">
                                    <use xlink:href="#path-6"></use>
                                </mask>
                                <g id="Clip-10"></g>
                                <path d="M0.940517334,0.0119577313 L0.0296975983,0.876937548 C-0.184349242,0.789769039 -0.399516747,0.704835621 -0.616085081,0.622975451 C-1.44369551,0.308107152 -2.27718942,0.0348674035 -3.11236433,-0.19702318 L-2.20126443,-1.06172361 C-1.36636969,-0.830112413 -0.532875773,-0.556593279 0.295014821,-0.24172498 C0.511583155,-0.159585424 0.726470493,-0.0752107773 0.940517334,0.0119577313" id="Fill-9" fill="#A3A4A4" mask="url(#mask-7)"></path>
                            </g>
                            <g transform="translate(161.627009, 54.079593)">
                                <mask id="mask-9" fill="white">
                                    <use xlink:href="#path-8"></use>
                                </mask>
                                <g id="Clip-12"></g>
                                <path d="M1.53951229,0.247480336 L0.628692552,1.11246015 C0.414645712,1.02529164 0.199478207,0.940358226 -0.0170901273,0.858498056 C-0.844700555,0.543629757 -1.67819447,0.270390009 -2.51336938,0.0384994247 L-1.60226948,-0.826201006 C-0.767374733,-0.594589808 0.066119181,-0.321070674 0.894009774,-0.00620237465 C1.11057811,0.0759371816 1.32546545,0.160311828 1.53951229,0.247480336" id="Fill-11" fill="#A3A4A4" mask="url(#mask-9)"></path>
                            </g>
                            <g transform="translate(159.123726, 53.256242)">
                                <mask id="mask-11" fill="white">
                                    <use xlink:href="#path-10"></use>
                                </mask>
                                <g id="Clip-14"></g>
                                <path d="M4.04279569,1.0708316 L3.13197595,1.93581142 C2.91792911,1.84864291 2.70276161,1.76370949 2.48619327,1.68184932 C1.65858285,1.36698102 0.825088933,1.09374127 -0.0100859768,0.861850691 L0.901013925,-0.00284973971 C1.73590867,0.228761458 2.56940258,0.502280592 3.39729318,0.817148891 C3.61386151,0.899288448 3.82874885,0.983663094 4.04279569,1.0708316" id="Fill-13" fill="#A3A4A4" mask="url(#mask-11)"></path>
                            </g>
                            <g transform="translate(159.113640, 53.253448)">
                                <mask id="mask-13" fill="white">
                                    <use xlink:href="#path-12"></use>
                                </mask>
                                <g id="Clip-16"></g>
                                <path d="M4.05288167,1.07362546 L3.14206193,1.93860528 C2.92801509,1.85143677 2.71284759,1.76650335 2.49627925,1.68464318 C1.66866882,1.36977489 0.83517491,1.09653514 -3.1851189e-14,0.864644553 L0.911099902,-5.58772491e-05 C1.74599465,0.23155532 2.57948856,0.505074455 3.40737915,0.819942754 C3.62394749,0.90208231 3.83883483,0.986456956 4.05288167,1.07362546" id="Fill-15" fill="#A3A4A4" mask="url(#mask-13)"></path>
                            </g>
                            <polygon id="Fill-17" fill="#9FA0A0" points="160.0246 53.2534476 159.11378 54.1181481 140.221625 4.88917404 141.132725 4.02419422"></polygon>
                            <polygon id="Fill-19" fill="#9FA0A0" points="187.710494 99.2228503 186.799674 100.08783 176.311099 72.7568706 177.221918 71.8918908"></polygon>
                            <g transform="translate(148.860296, 65.216487)">
                                <mask id="mask-15" fill="white">
                                    <use xlink:href="#path-14"></use>
                                </mask>
                                <g id="Clip-22"></g>
                                <path d="M1.03420048,1.7757231 L0.123380748,2.64070292 C-0.133251327,1.97185224 0.0242019768,1.28651778 0.468265121,0.864644553 L1.37936502,-5.58772491e-05 C0.935021712,0.421537967 0.777568408,1.10715181 1.03420048,1.7757231" id="Fill-21" fill="#A3A4A4" mask="url(#mask-15)"></path>
                            </g>
                            <g transform="translate(138.256960, 54.946285)">
                                <mask id="mask-17" fill="white">
                                    <use xlink:href="#path-16"></use>
                                </mask>
                                <g id="Clip-24"></g>
                                <path d="M38.96507,16.9455498 L38.0542503,17.8105296 C35.3422432,10.7437339 29.7333194,5.1498625 22.6658514,2.46551946 C17.8495173,0.634142615 12.845472,0.368725682 8.2000392,1.69720728 C4.98793576,2.61554987 2.22437813,4.23040237 -0.000140083011,6.342283 L0.910959819,5.47758257 C3.13547803,3.36598133 5.8987555,1.75084944 9.11085893,0.832227463 C13.7562917,-0.495974749 18.760337,-0.230557815 23.5766711,1.60081903 C30.6444193,4.28544146 36.2530629,9.8787541 38.96507,16.9455498" id="Fill-23" fill="#A3A4A4" mask="url(#mask-17)"></path>
                            </g>
                            <polygon id="Fill-25" fill="#9FA0A0" points="155.769578 82.3017106 154.858758 83.1666904 148.983677 67.8571623 149.894497 66.9921825"></polygon>
                            <g transform="translate(154.858758, 82.301794)">
                                <mask id="mask-19" fill="white">
                                    <use xlink:href="#path-18"></use>
                                </mask>
                                <g id="Clip-28"></g>
                                <path d="M3.76660802,0.860733146 L2.85578829,1.72571296 C2.68908951,1.88384558 2.48176665,2.00509921 2.24054371,2.07410761 C1.35718024,2.32639339 0.35306522,1.78466346 5.60332043e-05,0.864923939 L0.910875769,-5.58772491e-05 C1.26388496,0.91996303 2.26799998,1.46169296 3.15136344,1.20912779 C3.39258639,1.14011939 3.59990924,1.01914515 3.76660802,0.860733146" id="Fill-27" fill="#A3A4A4" mask="url(#mask-19)"></path>
                            </g>
                            <path d="M150.855662,64.8676177 C151.739026,64.6150525 152.741179,65.1573412 153.094189,66.0773601 L158.96927,81.3868882 C159.322279,82.3069071 158.893625,83.2582173 158.010262,83.5107825 C157.126618,83.763627 156.122503,83.2216177 155.769494,82.3015988 L149.894413,66.9920707 C149.541403,66.0723312 149.972299,65.1201829 150.855662,64.8676177" id="Fill-29" fill="#FBFBFB"></path>
                            <g transform="translate(131.727691, 66.765405)">
                                <mask id="mask-21" fill="white">
                                    <use xlink:href="#path-20"></use>
                                </mask>
                                <g id="Clip-32"></g>
                                <path d="M0.959456557,0.00444224131 L0.0486368213,0.869142672 C-0.255623478,0.843439137 -0.558202781,0.818573761 -0.861902748,0.794267158 L0.0489169873,-0.0704332725 C0.352616955,-0.0461266692 0.655476424,-0.0212612933 0.959456557,0.00444224131" id="Fill-31" fill="#A3A4A4" mask="url(#mask-21)"></path>
                            </g>
                            <g transform="translate(130.894758, 66.697234)">
                                <mask id="mask-23" fill="white">
                                    <use xlink:href="#path-22"></use>
                                </mask>
                                <g id="Clip-34"></g>
                                <path d="M1.79239014,0.0726124852 L0.881570403,0.937312916 C0.577310104,0.911609381 0.274730801,0.886744005 -0.0289691666,0.862437402 L0.881850569,-0.00226302859 C1.18555054,0.0220435748 1.48841001,0.0469089506 1.79239014,0.0726124852" id="Fill-33" fill="#A3A4A4" mask="url(#mask-23)"></path>
                            </g>
                            <g transform="translate(130.865620, 66.694999)">
                                <mask id="mask-25" fill="white">
                                    <use xlink:href="#path-24"></use>
                                </mask>
                                <g id="Clip-36"></g>
                                <path d="M1.8215274,0.0748475752 L0.910707669,0.939548006 C0.60644737,0.913844471 0.303868067,0.888979095 0.000168099613,0.864672492 L0.910987835,-2.79386246e-05 C1.2146878,0.0242786647 1.51754727,0.0491440406 1.8215274,0.0748475752" id="Fill-35" fill="#A3A4A4" mask="url(#mask-25)"></path>
                            </g>
                            <g transform="translate(130.865620, 58.398345)">
                                <mask id="mask-27" fill="white">
                                    <use xlink:href="#path-26"></use>
                                </mask>
                                <g id="Clip-38"></g>
                                <path d="M0.910931802,8.29676571 L0.000112066409,9.16146614 C1.18241268,6.00412217 3.03459024,3.16891055 5.46194865,0.864532799 L6.37276839,0.000111754498 C3.94540998,2.30448951 2.09351258,5.13942174 0.910931802,8.29676571" id="Fill-37" fill="#A3A4A4" mask="url(#mask-27)"></path>
                            </g>
                            <polygon id="Fill-39" fill="#9F9FA0" points="132.76184 69.4171992 131.85102 70.2818996 131.776216 67.6344356 132.687036 66.7697351"></polygon>
                            <g transform="translate(182.193156, 99.222822)">
                                <mask id="mask-29" fill="white">
                                    <use xlink:href="#path-28"></use>
                                </mask>
                                <g id="Clip-42"></g>
                                <path d="M0.910931802,23.6643782 L0.000112066409,24.529358 C5.92058043,18.9086655 8.02294626,9.76770635 4.60632162,0.865063632 L5.51742153,8.38158737e-05 C8.93376599,8.90272653 6.83140017,18.0436857 0.910931802,23.6643782" id="Fill-41" fill="#A3A4A4" mask="url(#mask-29)"></path>
                            </g>
                            <g transform="translate(20.724793, 68.682709)">
                                <mask id="mask-31" fill="white">
                                    <use xlink:href="#path-30"></use>
                                </mask>
                                <g id="Clip-44"></g>
                                <path d="M112.036991,0.734490088 L111.126171,1.59919052 C110.531659,1.54890099 109.936306,1.50140533 109.342354,1.45642415 C85.6061287,-0.343661434 62.2954752,1.96798036 40.021436,8.33714861 C26.2403496,12.2778916 13.0773094,17.7326287 0.880841971,24.558314 C0.586387483,24.7228725 0.293053658,24.8882692 0,25.0547834 L0.910819736,24.1898036 C1.20387339,24.0235688 1.49748738,23.8584515 1.79166171,23.6936136 C13.9881291,16.8676488 27.1511693,11.4131912 40.9325359,7.47244817 C63.2062949,1.10327993 86.5172286,-1.20836186 110.253174,0.59144433 C110.847126,0.636425516 111.442479,0.684200564 112.036991,0.734490088" id="Fill-43" fill="#A3A4A4" mask="url(#mask-31)"></path>
                            </g>
                            <g transform="translate(129.358790, 69.274293)">
                                <mask id="mask-33" fill="white">
                                    <use xlink:href="#path-32"></use>
                                </mask>
                                <g id="Clip-46"></g>
                                <path d="M2.74085016,15.5200736 L1.83003042,16.3850534 C-0.208177382,11.0736415 -0.485541743,5.68679528 0.708245674,0.864588676 L1.61906541,-0.000111754498 C0.425558159,4.82209485 0.702642354,10.208941 2.74085016,15.5200736" id="Fill-45" fill="#A3A4A4" mask="url(#mask-33)"></path>
                            </g>
                            <polygon id="Fill-47" fill="#9FA0A0" points="138.721336 2.72328805 137.810516 3.58798848 62.8252009 25.0297653 63.7363008 24.1650649"></polygon>
                            <path d="M137.738401,0.161874948 C140.045568,-0.497755978 142.670724,0.918452902 143.59247,3.32089523 L163.166549,54.3270452 C162.952503,54.240156 162.737335,54.155502 162.521047,54.0733625 C161.693156,53.7584942 160.859662,53.484975 160.024487,53.2533638 L141.132612,4.02411041 C140.752987,3.0350831 139.671266,2.45144523 138.721224,2.72328805 L63.7361887,24.1650649 L61.3332047,22.0096 L137.738401,0.161874948 Z" id="Fill-49" fill="#FBFBFB"></path>
                            <polygon id="Fill-51" fill="#A0A0A1" points="63.7361887 24.1650928 62.825369 25.0297932 60.4221048 22.8746077 61.3332047 22.0096279"></polygon>
                            <polygon id="Fill-53" fill="#9FA0A0" points="142.588103 112.125661 141.677283 112.990362 131.188708 85.6594024 132.099528 84.7944226"></polygon>
                            <g transform="translate(141.677227, 112.125717)">
                                <mask id="mask-35" fill="white">
                                    <use xlink:href="#path-34"></use>
                                </mask>
                                <g id="Clip-56"></g>
                                <path d="M43.3541789,12.7878437 L42.4433592,13.6528235 C39.9624891,16.0077702 36.8806628,17.8089733 33.2984601,18.8332033 C21.5771542,22.1847207 8.27795337,16.1706524 1.84898367,4.78510411 C1.64334182,4.42106383 1.44498427,4.05143583 1.25363088,3.67649948 C1.02277408,3.22417315 0.802843751,2.76374462 0.595240729,2.29856652 C0.383435217,1.82472745 0.184517342,1.34530065 -0.000112066409,0.864476921 L0.910987835,5.58772491e-05 C1.09533708,0.48060022 1.29425495,0.959747631 1.50606046,1.43386609 C1.71366349,1.89904419 1.93359381,2.35947272 2.16445061,2.81151967 C2.35580401,3.1867354 2.55444172,3.5563634 2.76008358,3.92068306 C9.18905327,15.3062313 22.487974,21.3200203 34.20956,17.9682235 C37.7914826,16.9439935 40.8733088,15.1430698 43.3541789,12.7878437" id="Fill-55" fill="#A3A4A4" mask="url(#mask-35)"></path>
                            </g>
                            <path d="M187.710494,99.2228503 L177.221918,71.8918908 C174.510191,64.8250951 168.901268,59.2315031 161.833519,56.54716 C157.017466,54.7157832 152.01342,54.4503663 147.367707,55.7785685 C135.605497,59.1420995 129.859852,71.843557 134.559637,84.0910118 L145.048213,111.421971 C145.376567,112.277731 145.756192,113.125948 146.17364,113.945388 C151.707759,124.792838 164.058318,130.633687 174.903545,127.5325 C186.666035,124.168969 192.410559,111.470585 187.710494,99.2228503 M163.166549,54.3274363 C170.743639,57.4113017 176.740033,63.5220377 179.682056,71.1883962 L190.170632,98.5193557 C195.411977,112.17799 189.00402,126.343153 175.886647,130.093913 C164.165341,133.44571 150.86614,127.431921 144.437171,116.046372 C144.231529,115.682053 144.032891,115.312425 143.841538,114.937209 C143.610961,114.485162 143.391031,114.024734 143.183428,113.559555 C142.971622,113.085437 142.772424,112.60629 142.588075,112.125745 L132.09978,84.794227 C130.061572,79.4833739 129.784208,74.0962483 130.977995,69.2743211 C131.571947,69.3193022 132.1673,69.3667979 132.761812,69.4170874 L132.687008,66.7699028 C132.383028,66.7441992 132.080448,66.7193338 131.776468,66.6950272 C134.167685,60.3104928 139.296685,55.2441026 146.384885,53.2171554 C150.768082,51.9638287 155.436489,51.9817094 160.024207,53.253755 C160.859662,53.4853662 161.692876,53.7586059 162.520767,54.0731948 C162.737335,54.1556138 162.952222,54.2402678 163.166549,54.3274363" id="Fill-57" fill="#FBFBFB"></path>
                            <g transform="translate(41.376111, 31.677850)">
                                <mask id="mask-37" fill="white">
                                    <use xlink:href="#path-36"></use>
                                </mask>
                                <g id="Clip-60"></g>
                                <path d="M10.6665088,11.8246548 L9.75568905,12.6896346 C11.4792704,11.05299 12.089472,8.39574738 11.0926413,5.79857284 C9.72122863,2.22466398 5.82664076,0.124517573 2.39432684,1.10628084 C1.45577066,1.37449164 0.648892522,1.84553685 2.80166021e-05,2.46158352 L0.910847752,1.59716247 C1.55971226,0.980836416 2.3665904,0.509791206 3.30542674,0.241301023 C6.7374605,-0.740182858 10.6320484,1.35996355 12.003461,4.93359302 C13.0002917,7.53076756 12.3903703,10.1882895 10.6665088,11.8246548" id="Fill-59" fill="#A3A4A4" mask="url(#mask-37)"></path>
                            </g>
                            <polygon id="Fill-61" fill="#9F9FA0" points="24.4706406 32.5505078 23.5598209 33.4152082 25.1626507 22.5406573 26.0734705 21.6756775"></polygon>
                            <g transform="translate(61.309082, 72.305075)">
                                <mask id="mask-39" fill="white">
                                    <use xlink:href="#path-38"></use>
                                </mask>
                                <g id="Clip-64"></g>
                                <path d="M4.0959712,0.000111754498 L3.18515146,0.865091571 C2.12136108,1.14028702 1.05925169,1.42498161 -5.60332043e-05,1.71805778 L0.910763702,0.853636735 C1.97007143,0.560001791 3.03218082,0.275307206 4.0959712,0.000111754498" id="Fill-63" fill="#A3A4A4" mask="url(#mask-39)"></path>
                            </g>
                            <polygon id="Fill-65" fill="#9FA0A0" points="62.2199862 73.158628 61.3091665 74.0233285 50.2025449 45.0814279 51.1133646 44.2164481"></polygon>
                            <polygon id="Fill-67" fill="#9F9FA0" points="24.0332455 35.5181485 23.1224257 36.3828489 23.5597649 33.4152082 24.4705846 32.5505078"></polygon>
                            <g transform="translate(55.079591, 74.041181)">
                                <mask id="mask-41" fill="white">
                                    <use xlink:href="#path-40"></use>
                                </mask>
                                <g id="Clip-70"></g>
                                <path d="M4.05375018,8.38158737e-05 L3.14293044,0.865063632 C2.09174753,1.17490298 1.04364645,1.49396207 2.80166021e-05,1.82140275 L0.910847752,0.956702321 C1.95446618,0.629261641 3.00256727,0.310202549 4.05375018,8.38158737e-05" id="Fill-69" fill="#A3A4A4" mask="url(#mask-41)"></path>
                            </g>
                            <polygon id="Fill-71" fill="#A0A0A1" points="55.9905228 74.9978277 55.079703 75.8625281 21.7136109 45.9405406 22.6244306 45.0755608"></polygon>
                            <polygon id="Fill-73" fill="#9F9FA0" points="22.6245427 45.0756725 21.7137229 45.9406524 23.1223977 36.3828489 24.0332174 35.5181485"></polygon>
                            <g transform="translate(3.153901, 41.038402)">
                                <mask id="mask-43" fill="white">
                                    <use xlink:href="#path-42"></use>
                                </mask>
                                <g id="Clip-76"></g>
                                <path d="M1.57318824,8.38158737e-05 L0.662368508,0.865063632 C0.402934772,0.938821601 0.179642453,1.06929498 5.60332043e-05,1.23972059 L0.911155935,0.375299544 C1.09074235,0.204594548 1.31375451,0.0744005572 1.57318824,8.38158737e-05" id="Fill-75" fill="#A3A4A4" mask="url(#mask-43)"></path>
                            </g>
                            <g transform="translate(19.280257, 89.790184)">
                                <mask id="mask-45" fill="white">
                                    <use xlink:href="#path-44"></use>
                                </mask>
                                <g id="Clip-78"></g>
                                <path d="M2.23065385,-0.03453214 L1.31983411,0.83016829 C0.862603163,1.08413039 0.407613545,1.33948942 -0.0468157422,1.59736292 L0.864003993,0.732662491 C1.31843328,0.474788986 1.7734229,0.219150571 2.23065385,-0.03453214" id="Fill-77" fill="#A3A4A4" mask="url(#mask-45)"></path>
                            </g>
                            <g transform="translate(19.233469, 90.496193)">
                                <mask id="mask-47" fill="white">
                                    <use xlink:href="#path-46"></use>
                                </mask>
                                <g id="Clip-80"></g>
                                <path d="M2.27744157,-0.740541183 L1.36662184,0.124159248 C0.909390889,0.378121345 0.45440127,0.633480373 -2.80166021e-05,0.891353878 L0.910791719,0.0266534478 C1.36522101,-0.231220057 1.82021062,-0.486858472 2.27744157,-0.740541183" id="Fill-79" fill="#A3A4A4" mask="url(#mask-47)"></path>
                            </g>
                            <polygon id="Fill-81" fill="#A0A0A0" points="21.6356127 92.8725406 20.7247929 93.7375204 19.233189 91.3878821 20.1442889 90.5229023"></polygon>
                            <path d="M143.183316,113.559416 C143.390919,114.024594 143.610849,114.485022 143.841706,114.937069 C144.032779,115.312285 144.231697,115.681913 144.437339,116.046233 L44.480266,144.628563 C42.1730988,145.288474 39.5473829,143.869191 38.6264771,141.468984 L1.23299843,44.0282814 C0.310972056,41.6255597 1.4369593,39.1367871 3.74412648,38.4771561 L24.4708087,32.5505357 L24.0331894,35.517897 L4.72722905,41.0385692 C3.77718607,41.3101327 3.31323114,42.3357596 3.6928561,43.3247869 L21.5108547,89.7557077 C21.0536238,90.0093904 20.5986342,90.2650288 20.1442049,90.5229023 L21.6358088,92.8722612 C21.9288624,92.7060264 22.2224764,92.5409091 22.5166507,92.3763506 L41.0863348,140.765769 C41.4651193,141.752561 42.5465601,142.336199 43.4963229,142.064636 L143.183316,113.559416 Z" id="Fill-83" fill="#FBFBFB"></path>
                            <path d="M52.5272785,14.1115464 L61.3331767,22.0097955 L63.7361607,24.164981 L71.4754669,31.1068911 L65.4051097,72.3051869 C64.3413193,72.5803823 63.2792099,72.8650769 62.2199022,73.1587119 L51.1132806,44.2165319 C53.5249497,42.7335497 54.5388705,39.632083 53.3798237,36.6113589 C52.0081309,33.0377294 48.113543,30.9378624 44.6815092,31.9190669 C41.2491953,32.9005508 39.579686,36.5918019 40.9510987,40.1654313 C42.1101455,43.1855966 45.0686987,45.151917 48.0266915,45.099113 L59.1333131,74.041293 C58.0824104,74.3514117 57.0340291,74.6704708 55.9904107,74.9979115 L22.6245987,45.0756446 L24.0332735,35.5181205 L24.4706126,32.5504798 L26.0734424,21.6756496 C34.5296935,19.257841 45.0672979,16.2446604 52.5272785,14.1115464" id="Fill-85" fill="#FBFBFB"></path>
                            <polygon id="Fill-87" fill="#9FA0A0" points="24.0332455 35.517897 23.1224257 36.3828768 3.81618518 41.9032697 4.72700492 41.0385692"></polygon>
                            <g transform="translate(0.000000, 39.388346)">
                                <mask id="mask-49" fill="white">
                                    <use xlink:href="#path-48"></use>
                                </mask>
                                <g id="Clip-90"></g>
                                <path d="M1.23291438,4.63990707 L0.322094647,5.50460751 C-0.348062476,3.75844347 0.063781575,1.96673948 1.2245094,0.864560737 L2.13532914,0.000139693123 C0.974601311,1.10203905 0.562757259,2.89374304 1.23291438,4.63990707" id="Fill-89" fill="#A3A4A4" mask="url(#mask-49)"></path>
                            </g>
                            <g transform="translate(20.537362, 89.755540)">
                                <mask id="mask-51" fill="white">
                                    <use xlink:href="#path-50"></use>
                                </mask>
                                <g id="Clip-92"></g>
                                <path d="M0.973548908,0.000111754498 L0.0627291722,0.864812185 C-0.394501775,1.11877428 -0.849491393,1.37413331 -1.30392068,1.63200682 L-0.393100945,0.767306385 C0.0613283421,0.50943288 0.516317961,0.253794466 0.973548908,0.000111754498" id="Fill-91" fill="#A3A4A4" mask="url(#mask-51)"></path>
                            </g>
                            <path d="M60.6742543,73.5935486 C61.1894796,73.4463121 61.7038644,73.30159 62.2199302,73.1585442 C63.2792379,72.8651887 64.3413473,72.5804941 65.4051377,72.3052986 C86.8050589,66.7650694 109.105714,64.8792122 131.776468,66.6952228 C132.080448,66.7195294 132.383028,66.7441154 132.687008,66.7698189 L132.761812,69.417283 C132.1673,69.3669935 131.571947,69.3192184 130.977995,69.2742372 C107.24205,67.4744311 83.9311159,69.7860729 61.6573568,76.1552411 C47.8759902,80.0957047 34.7129501,85.5504418 22.5164826,92.3764065 C22.2223083,92.540965 21.9286943,92.7063617 21.6356407,92.8725965 L20.1440368,90.5229582 C20.5987462,90.265364 21.0537358,90.010005 21.5109668,89.7560429 C32.338543,83.7405777 43.9110807,78.7884565 55.9904387,74.9977439 C57.0340571,74.6703032 58.0821582,74.3515235 59.1333411,74.0414048 C59.6463251,73.8899774 60.1595893,73.7407852 60.6742543,73.5935486" id="Fill-93" fill="#FBFBFB"></path>
                            <polygon id="Fill-95" fill="#9FA0A0" points="144.437311 116.046345 143.526491 116.911045 43.5694182 145.493375 44.480238 144.628675"></polygon>
                            <polygon id="Fill-97" fill="#9FA0A0" points="38.6264211 141.469124 37.7156014 142.334104 0.322122663 44.8928422 1.2329424 44.0281417"></polygon>
                            <g transform="translate(37.715461, 141.469096)">
                                <mask id="mask-53" fill="white">
                                    <use xlink:href="#path-52"></use>
                                </mask>
                                <g id="Clip-100"></g>
                                <path d="M6.76488875,3.15949524 L5.85406902,4.02447505 C3.54690183,4.68410598 0.921185878,3.26510324 0,0.864896001 L0.910819736,-8.38158737e-05 C1.83200561,2.40012342 4.45772157,3.81940555 6.76488875,3.15949524" id="Fill-99" fill="#A3A4A4" mask="url(#mask-53)"></path>
                            </g>
                        </g>
                    </g>
                </g>
            </g>
        </g>
    </g>
</svg>