<?xml version="1.0" encoding="UTF-8"?>
<svg width="176px" height="195px" viewBox="0 0 176 195" version="1.1" xmlns="http://www.w3.org/2000/svg" xmlns:xlink="http://www.w3.org/1999/xlink">
    <title>interface/icon</title>
    <defs>
        <filter id="filter-1">
            <feColorMatrix in="SourceGraphic" type="matrix" values="0 0 0 0 0.631373 0 0 0 0 0.631373 0 0 0 0 0.631373 0 0 0 1.000000 0"></feColorMatrix>
        </filter>
        <path d="M1.05600979,-2.95766605e-14 L0.255252366,0.830687869 C0.186751731,0.901711292 0.100750934,0.956084535 0,0.987043462 L0.800757423,0.156355593" id="path-2"></path>
        <path d="M8.53119098,4.37426884 L7.67985215,5.20630592 C6.40948668,2.04889202 2.97144887,0.18306451 0,1.04064659 L0.851338833,0.208609508" id="path-4"></path>
        <path d="M2.79581373,0 L1.94474061,0.832037081 C1.45822332,1.30800817 0.72698597,1.61298417 -1.51039357e-14,1.82307874 L0.851073122,0.990780997" id="path-6"></path>
        <path d="M2.67278943,0.818034561 C2.84603316,1.24838958 2.75701989,1.68630383 2.48174304,1.95556897 L1.63066992,2.78786671 C1.90594677,2.51860158 1.99496004,2.08068732 1.8217163,1.65007164 C1.58417045,1.05966939 0.940883523,0.71038064 0.383421328,0.871470526 C0.232231629,0.915001288 0.103095964,0.991896946 0,1.09277362 L0.851073122,0.260736541 C0.954169085,0.159859865 1.08330475,0.0829642074 1.23449445,0.0391727821" id="path-8"></path>
        <path d="M1.12050433,0.153870371 C1.15318681,0.234936641 1.13671271,0.317306226 1.08489902,0.367874896 L0.233825897,1.20017264 C0.28563959,1.14960397 0.302113687,1.06723438 0.269431204,0.986168115 C0.224791714,0.874864909 0.104690231,0.809438435 0,0.839414708 L0.851073122,0.00737762717" id="path-10"></path>
        <path d="M0.92334658,2.96339801e-14 L0.0720077477,0.832297744 C0.0435766444,0.840638968 0.0191312097,0.854975446 0,0.874003863 L0.851073122,0.0417061193" id="path-12"></path>
        <path d="M0.851073122,0 C0.905809638,0.0091232136 1.94580346,0.180639629 2.64037265,1.90701231 L1.78903382,2.73931005 C1.09446462,1.01293737 0.0544708055,0.841420957 7.55196783e-15,0.832297744" id="path-14"></path>
        <path d="M0.851338833,0 C1.67158945,2.03890791 3.54618229,1.92525873 5.09687312,1.47743928 L4.24553429,2.30973702 C2.69484346,2.75755648 0.820250617,2.87120565 1.51039357e-14,0.832297744" id="path-16"></path>
        <path d="M2.90395821,0 L2.05288509,0.832037081 C1.24326292,1.06585201 0.551882258,1.47769994 -7.55196783e-15,2.01727286 L0.851338833,1.18497512" id="path-18"></path>
        <path d="M3.06075234,0 C0.889625744,2.12258081 0.18522523,5.58523137 1.54832392,8.97281091 L0.697250802,9.80510865 C-0.665847891,6.41752911 0.0385526225,2.95487855 2.20967922,0.832037081" id="path-20"></path>
        <path d="M1.00681911,0 C0.821211226,0.198392459 0.760703567,0.522387867 0.87763398,0.838994866 L0.0596316977,1.71274262 C-0.0570434094,1.39586197 0.00346425004,1.07214021 0.189072134,0.873747752" id="path-22"></path>
        <path d="M0.817746976,0 C0.978079508,0.435642474 1.41210069,0.692321269 1.78638014,0.574106728 L0.968633165,1.44785448 C0.594098412,1.56606902 0.160332532,1.30911658 0,0.873474107" id="path-24"></path>
        <path d="M5.8833212,1.8994642 L5.03991262,2.7368798 C4.50432316,1.38516041 2.45675992,0.692777947 0,0.862726369 L0.843408576,0.0253107653" id="path-26"></path>
        <path d="M3.37284435,0 L2.52943577,0.837415604 C1.71788871,0.894851876 0.86157754,1.04513034 0,1.29769258 L0.843408576,0.460276976" id="path-28"></path>
        <path d="M1.85929065,0 C2.7756384,2.31266232 2.30298202,4.6767288 0.843408576,6.12574891 L0,6.96316451 C1.45957344,5.5141444 1.93222982,3.15034019 1.01588207,0.837153338" id="path-30"></path>
        <path d="M3.84286755,-1.49081008e-14 L2.99945897,0.837153338 C2.1934416,1.63758942 1.18308921,2.24840713 0,2.59512289 L0.843408576,1.75796956" id="path-32"></path>
        <path d="M1.82769245,0 C2.19107173,0.917144493 1.78714143,1.96043897 0.843408576,2.89751569 L0,3.73466903 C0.943732855,2.79785458 1.34766316,1.7545601 0.984283876,0.837153338" id="path-34"></path>
        <path d="M4.85164003,7.45405041e-15 L4.00823145,0.837415604 C3.10241643,1.736726 1.69945643,2.53768662 2.9935827e-14,3.03599218 L0.843671894,2.19831431" id="path-36"></path>
        <path d="M0.843408576,0 C2.70059268,4.68590811 7.7260228,7.45360209 12.0660353,6.18134932 L11.2226268,7.01902719 C6.8823509,8.29075543 1.8571841,5.52358598 0,0.837415604" id="path-38"></path>
        <path d="M1.38622292,0 C0.859849604,0.522434038 0.683426331,1.35329299 1.00335809,2.16081026 C1.44941932,3.28645629 2.69175515,3.9413347 3.7776799,3.62294367 C4.08470906,3.53298641 4.34618415,3.37483996 4.55367898,3.16896108 L3.71000709,4.00637669 C3.50277557,4.21225556 3.24130048,4.37013975 2.93427132,4.46035928 C1.84808326,4.77848804 0.606010745,4.12387189 0.159949513,2.99822586 C-0.159982245,2.19070859 0.0164410287,1.35984964 0.542814348,0.837415604" id="path-40"></path>
        <path d="M1.38660325,0 C0.859966607,0.522696304 0.683543333,1.35329299 1.00347509,2.16107253 C1.44953632,3.28671856 2.69187215,3.9413347 3.77806022,3.62294367 C4.08482606,3.53298641 4.34630115,3.37510223 4.55379599,3.16922335 L3.71038741,4.00637669 C3.50289257,4.21225556 3.24115417,4.37040201 2.93438832,4.46035928 C1.84820026,4.7787503 0.606127748,4.12413416 0.160066515,2.99822586 C-0.16012856,2.19070859 0.0165580316,1.35984964 0.542931351,0.837415604" id="path-42"></path>
        <path d="M4.85137671,1.49081008e-14 L4.00796813,0.837415604 C2.30877502,1.33519663 0.905815017,2.13668178 0,3.03572991 L0.843408576,2.19831431" id="path-44"></path>
        <path d="M1.38641591,1.49081008e-14 C0.86004259,0.522434038 0.683355998,1.35329299 1.00328776,2.16081026 C1.44934899,3.28671856 2.69168482,3.94107243 3.77760956,3.62294367 C4.08463872,3.53298641 4.34611381,3.37483996 4.55360865,3.16922335 L3.70993676,4.00637669 C3.50270524,4.21225556 3.24123015,4.37040201 2.93420099,4.46035928 C1.84827624,4.77848804 0.605940412,4.12413416 0.15987918,2.99822586 C-0.160052578,2.19070859 0.0166340145,1.35984964 0.543007334,0.837153338" id="path-46"></path>
        <path d="M1.96028374,1.49081008e-14 C1.01655088,0.93681445 0.612357262,1.98010893 0.975736543,2.89725342 L0.132327967,3.73440676 C-0.231314631,2.81752453 0.173142306,1.77423005 1.11687516,0.837415604" id="path-48"></path>
        <path d="M0.843408576,0 C1.55594795,1.79730947 4.94696126,2.42989526 8.41512684,1.41335192 L7.57171826,2.25076753 C4.10355268,3.26731087 0.712276053,2.63472507 0,0.837415604" id="path-50"></path>
        <polygon id="path-52" points="-1.40324189e-15 0 175.156478 0 175.156478 138.782749 -1.40324189e-15 138.782749"></polygon>
        <path d="M0.919544651,0 C0.749431187,0.187990139 0.694435602,0.495704397 0.801164323,0.795661153 L0.0545293402,1.6210594 C-0.0519663486,1.32110264 0.00279620473,1.01364697 0.172909668,0.825656829" id="path-54"></path>
        <path d="M0.746634982,0 C0.892979168,0.411664789 1.28890078,0.654216028 1.63075893,0.542507994 L0.884356978,1.36816482 C0.542498826,1.47987286 0.146344185,1.23732162 0,0.825656829" id="path-56"></path>
        <path d="M1.00690166,0 C0.821036324,0.1981207 0.760783276,0.521845546 0.87745973,0.839002854 L0.0597033186,1.71248528 C-0.0569731346,1.39560162 0.00327991345,1.07187677 0.188889939,0.873482423" id="path-58"></path>
        <path d="M0.817756411,0 C0.978090793,0.435646622 1.41288292,0.694790687 1.78742199,0.576575021 L0.969410269,1.45033109 C0.595126505,1.56854676 0.160334382,1.30940269 -7.25633316e-15,0.873756071" id="path-60"></path>
    </defs>
    <g id="页面-2" stroke="none" stroke-width="1" fill="none" fill-rule="evenodd">
        <g id="首頁" transform="translate(-315.000000, -587.000000)">
            <g id="interface" transform="translate(268.000000, 545.000000)">
                <rect id="interdace/box" x="0" y="0" width="272" height="400" rx="36.5"></rect>
                <g filter="url(#filter-1)" id="interface/icon">
                    <g transform="translate(47.000000, 42.000000)">
                        <g id="编组" transform="translate(116.022346, 25.564246)">
                            <path d="M0.800757423,0.0275762401 C1.16951084,-0.0853327907 1.59426478,0.158696405 1.75151624,0.572869624 L6.82431326,13.9476467 C6.98131471,14.36182 6.81081313,14.7882207 6.44205972,14.9011297 L0.800757423,0.0275762401 Z" id="Fill-1" fill="#F3F3F3"></path>
                            <g transform="translate(5.641377, 14.744800)">
                                <mask id="mask-3" fill="white">
                                    <use xlink:href="#path-2"></use>
                                </mask>
                                <g id="Clip-4"></g>
                                <path d="M1.05605979,5.20318114e-05 L0.255302367,0.830739901 C0.186551729,0.901763324 0.100800934,0.956136566 -0.000200001854,0.986835335 L0.800807423,0.156407625 C0.901558357,0.125448697 0.987559154,0.0710754544 1.05605979,5.20318114e-05" id="Fill-3" fill="#A3A3A4" mask="url(#mask-3)"></path>
                            </g>
                            <polygon id="Fill-5" fill="#9FA0A0" points="6.44205972 14.9011037 5.64130229 15.7317915 0 0.857977934 0.800757423 0.0275502241"></polygon>
                        </g>
                        <g id="编组" transform="translate(51.128492, -0.000000)">
                            <g transform="translate(46.836946, 2.655021)">
                                <mask id="mask-5" fill="white">
                                    <use xlink:href="#path-4"></use>
                                </mask>
                                <g id="Clip-8"></g>
                                <path d="M8.5310847,4.37416457 L7.68001158,5.20646232 C6.40964611,2.04878776 2.97160829,0.182960245 0.000159426748,1.04080299 L0.851232548,0.208505243 C3.82268141,-0.649076836 7.26071923,1.21649001 8.5310847,4.37416457" id="Fill-7" fill="#A3A3A4" mask="url(#mask-5)"></path>
                            </g>
                            <polygon id="Fill-9" fill="#9FA0A0" points="47.6882315 2.8635267 46.8368927 3.69582444 41.3762609 5.27231575 42.227334 4.44001801"></polygon>
                            <path d="M42.2272543,4.43999194 L41.3761812,5.27228969 C41.375384,5.27281101 41.3745869,5.27385367 41.3732584,5.27515698 L42.2243315,4.44285924 C42.22566,4.44155592 42.2264572,4.44051327 42.2272543,4.43999194" id="Fill-11" fill="#A3A3A4"></path>
                            <g transform="translate(39.037258, 9.250923)">
                                <mask id="mask-7" fill="white">
                                    <use xlink:href="#path-6"></use>
                                </mask>
                                <g id="Clip-13"></g>
                                <path d="M2.7958403,-0.000130331623 L1.94476718,0.832167412 C1.45824989,1.30787784 0.726746829,1.6131145 2.65711246e-05,1.82294841 L0.851099693,0.990650666 C1.57808566,0.780816753 2.30932301,0.475580092 2.7958403,-0.000130331623" id="Fill-12" fill="#A3A3A4" mask="url(#mask-7)"></path>
                            </g>
                            <g transform="translate(32.702968, 7.782273)">
                                <mask id="mask-9" fill="white">
                                    <use xlink:href="#path-8"></use>
                                </mask>
                                <g id="Clip-15"></g>
                                <path d="M2.48166333,1.9556211 L1.6305902,2.78791884 C1.90586706,2.51865371 1.99488032,2.08047879 1.82163659,1.65012377 C1.58409074,1.05972152 0.940803809,0.710432773 0.383341615,0.871522659 C0.232151916,0.915053421 0.10301625,0.991949078 -7.97133739e-05,1.09282575 L0.850993408,0.260788674 C0.954089372,0.159911998 1.08322504,0.0827556768 1.23468045,0.0392249148 C1.79187693,-0.121604308 2.43516386,0.227423778 2.67297542,0.818086693 C2.84595344,1.24844171 2.75694018,1.68635597 2.48166333,1.9556211" id="Fill-14" fill="#A3A3A4" mask="url(#mask-9)"></path>
                            </g>
                            <g transform="translate(30.565055, 9.511507)">
                                <mask id="mask-11" fill="white">
                                    <use xlink:href="#path-10"></use>
                                </mask>
                                <g id="Clip-17"></g>
                                <path d="M1.0850053,0.367927029 L0.233932181,1.19996411 C0.285745874,1.1496561 0.30195426,1.06728652 0.269537488,0.986220248 C0.224632288,0.874917042 0.104796515,0.809229904 0.000106284498,0.83946684 L0.851179406,0.00742975982 C0.955869637,-0.0230678399 1.07570541,0.042619298 1.12061061,0.153922504 C1.15302738,0.234988773 1.136819,0.317358359 1.0850053,0.367927029" id="Fill-16" fill="#A3A3A4" mask="url(#mask-11)"></path>
                            </g>
                            <polygon id="Fill-18" fill="#9FA0A0" points="75.2222937 56.3766223 74.3709549 57.2089201 54.5170106 7.86145771 55.3680837 7.02915996"></polygon>
                            <polygon id="Fill-20" fill="#9FA0A0" points="77.6759777 55.6683221 76.8249045 56.5006198 74.3710612 57.2088419 75.2224 56.3765441"></polygon>
                            <polygon id="Fill-22" fill="#9FA0A0" points="39.8884108 10.241652 39.0373376 11.0739497 28.3629198 14.15525 29.2139929 13.3229522"></polygon>
                            <polygon id="Fill-24" fill="#9FA0A0" points="31.416128 9.51885889 30.5650549 10.350896 23.8760399 12.2818893 24.7273788 11.4495916"></polygon>
                            <g transform="translate(23.804032, 11.449618)">
                                <mask id="mask-13" fill="white">
                                    <use xlink:href="#path-12"></use>
                                </mask>
                                <g id="Clip-27"></g>
                                <path d="M0.923266867,2.60663246e-05 L0.0719280343,0.83232381 C0.043496931,0.840665034 0.0193172076,0.855001513 -7.97133739e-05,0.87402993 L0.850993408,0.0417321857 C0.870390329,0.0227037687 0.894835764,0.00836729019 0.923266867,2.60663246e-05" id="Fill-26" fill="#A3A3A4" mask="url(#mask-13)"></path>
                            </g>
                            <polygon id="Fill-28" fill="#9FA0A0" points="29.2139132 13.3230304 28.36284 14.1553282 17.6881564 17.2366284 18.5394953 16.4043307"></polygon>
                            <g transform="translate(11.653588, 13.019853)">
                                <mask id="mask-15" fill="white">
                                    <use xlink:href="#path-14"></use>
                                </mask>
                                <g id="Clip-31"></g>
                                <path d="M2.64026637,1.90711657 L1.78919325,2.73915365 C1.09462405,1.01278098 0.0546302322,0.84126456 -0.000106284498,0.832141346 L0.850966837,0.000104265298 C0.905703354,0.00896681566 1.94569717,0.180743895 2.64026637,1.90711657" id="Fill-30" fill="#A3A3A4" mask="url(#mask-15)"></path>
                            </g>
                            <g transform="translate(13.442622, 14.926865)">
                                <mask id="mask-17" fill="white">
                                    <use xlink:href="#path-16"></use>
                                </mask>
                                <g id="Clip-33"></g>
                                <path d="M5.09676684,1.47754354 L4.24542801,2.30984129 C2.69473717,2.75740008 0.820410044,2.87104925 0.000159426748,0.832141346 L0.851232548,0.000104265298 C1.67148317,2.03875151 3.54607601,1.92510234 5.09676684,1.47754354" id="Fill-32" fill="#A3A3A4" mask="url(#mask-17)"></path>
                            </g>
                            <polygon id="Fill-34" fill="#9FA0A0" points="12.5045817 13.019853 11.6535086 13.8521508 6.19261108 15.4283814 7.0436842 14.5963443"></polygon>
                            <g transform="translate(4.139540, 14.596344)">
                                <mask id="mask-19" fill="white">
                                    <use xlink:href="#path-18"></use>
                                </mask>
                                <g id="Clip-37"></g>
                                <path d="M2.90409107,-2.60663246e-05 L2.05301794,0.832011014 C1.24339578,1.06582595 0.551749403,1.47767387 0.000132855623,2.01724679 L0.851205977,1.18494905 C1.40308824,0.645636794 2.0944689,0.233528202 2.90409107,-2.60663246e-05" id="Fill-36" fill="#A3A3A4" mask="url(#mask-19)"></path>
                            </g>
                            <g transform="translate(0.000000, 13.735374)">
                                <mask id="mask-21" fill="white">
                                    <use xlink:href="#path-20"></use>
                                </mask>
                                <g id="Clip-39"></g>
                                <path d="M1.54827078,8.97294124 L0.69719766,9.80523899 C-0.665901033,6.41739878 0.0384994802,2.95474822 2.20962607,0.832167412 L3.06069919,-0.000130331623 C0.889572602,2.12271114 0.185437799,5.5853617 1.54827078,8.97294124" id="Fill-38" fill="#A3A3A4" mask="url(#mask-21)"></path>
                            </g>
                            <polygon id="Fill-40" fill="#9FA0A0" points="23.8193637 71.2148255 22.9682906 72.0471232 20.4995674 72.7597765 21.3509063 71.9274788"></polygon>
                            <polygon id="Fill-42" fill="#9FA0A0" points="21.3509063 71.9274527 20.4995674 72.7597505 0.697171088 23.5405344 1.54824421 22.7082367"></polygon>
                            <path d="M31.5779196,9.92103621 C31.6826098,9.89079927 31.7304378,9.77662877 31.6855326,9.66558623 C31.6408931,9.55402236 31.5207916,9.48859589 31.4161014,9.51883282 L24.7273522,11.4495655 C24.6223963,11.4798024 24.5748339,11.5937123 24.6197391,11.7052761 C24.6643786,11.8163187 24.7842144,11.8820058 24.8891704,11.8517689 L31.5779196,9.92103621 L31.5779196,9.92103621 Z M34.7983399,9.96065702 C35.3555363,9.7998278 35.6140734,9.1927431 35.3757304,8.60025554 C35.1381845,8.00959263 34.4948976,7.66056454 33.9374354,7.82139377 C33.3820989,7.98170166 33.124359,8.59113233 33.3619049,9.18153458 C33.6002478,9.77402214 34.2430034,10.1212256 34.7983399,9.96065702 L34.7983399,9.96065702 Z M46.5499511,0.307775706 C50.9315296,-0.957223026 55.9997059,1.79199223 57.8735016,6.44926244 L77.6758979,55.6682178 L75.2223203,56.3767005 L55.3681103,7.02923816 C54.0974791,3.8715636 50.6594413,2.00573609 47.6882581,2.86357883 L42.2273606,4.44007014 C42.1904267,4.47525968 41.4905433,5.14933483 42.1851125,6.87570751 C43.0053631,8.91461542 41.4368696,9.79461454 39.8883045,10.241652 L29.2138866,13.3229522 L18.5394687,16.4045131 C16.9887779,16.8520719 15.114185,16.9657211 14.2939344,14.9270738 C13.5993652,13.2007012 12.5593714,13.0289241 12.5046349,13.0198009 L7.04373735,14.5962922 C4.07228848,15.4541349 2.69484138,18.7098189 3.96520685,21.8674934 L23.8194169,71.2149558 L21.3509594,71.9273485 L1.54829735,22.7083931 C-0.325498356,18.0511228 1.70798981,13.2520518 6.08770828,11.9878351 L46.5499511,0.307775706 Z" id="Fill-44" fill="#F3F3F3"></path>
                        </g>
                        <g id="编组" transform="translate(62.927374, 50.145251)">
                            <g transform="translate(0.000000, 0.163174)">
                                <mask id="mask-23" fill="white">
                                    <use xlink:href="#path-22"></use>
                                </mask>
                                <g id="Clip-47"></g>
                                <path d="M0.877506327,0.839076959 L0.0597593509,1.71282471 C-0.0569157562,1.39594407 0.00333659675,1.0722223 0.18894448,0.873829845 L1.00694676,8.20934311e-05 C0.821083573,0.198474552 0.76083122,0.522196315 0.877506327,0.839076959" id="Fill-46" fill="#A3A3A4" mask="url(#mask-23)"></path>
                            </g>
                            <polygon id="Fill-48" fill="#9FA0A0" points="3.94741477 9.33892136 3.12966779 10.2126691 0.059606167 1.87608118 0.87760845 1.00233343"></polygon>
                            <path d="M1.26582764,0 L4.91620112,9.9133291 C4.54166636,10.03127 4.10790048,9.7745912 3.94731265,9.33894872 L0.877506327,1.00236079 C0.717173795,0.566718319 0.891292882,0.118214541 1.26582764,0" id="Fill-50" fill="#F3F3F3"></path>
                            <g transform="translate(3.129693, 9.339031)">
                                <mask id="mask-25" fill="white">
                                    <use xlink:href="#path-24"></use>
                                </mask>
                                <g id="Clip-53"></g>
                                <path d="M1.78648226,0.574188822 L0.968735287,1.44793657 C0.594200534,1.56615111 0.160434655,1.30919867 -0.000153183948,0.8735562 L0.817849099,-0.000191551339 C0.978181631,0.435724568 1.41194751,0.692403362 1.78648226,0.574188822" id="Fill-52" fill="#A3A3A4" mask="url(#mask-25)"></path>
                            </g>
                        </g>
                        <g id="编组" transform="translate(0.000000, 55.061453)">
                            <g transform="translate(129.111170, 5.096616)">
                                <mask id="mask-27" fill="white">
                                    <use xlink:href="#path-26"></use>
                                </mask>
                                <g id="Clip-55"></g>
                                <path d="M5.88329487,1.8995691 L5.03988629,2.73698471 C4.50429683,1.38526531 2.45673358,0.692620588 -2.63318319e-05,0.86256901 L0.843382244,0.0254156717 C3.30014216,-0.14453275 5.34770541,0.54784971 5.88329487,1.8995691" id="Fill-54" fill="#A3A3A4" mask="url(#mask-27)"></path>
                            </g>
                            <polygon id="Fill-56" fill="#9FA0A0" points="129.954526 5.12190033 129.111118 5.95931593 127.548323 2.0158831 128.391995 1.1784675"></polygon>
                            <path d="M128.391969,1.17854618 L129.9545,5.12197901 C129.142953,5.17941528 128.286905,5.32969374 127.425064,5.58225598 L125.960224,1.89138539 L128.391969,1.17854618 Z" id="Fill-58" fill="#F3F3F3"></path>
                            <polygon id="Fill-60" fill="#9FA0A0" points="127.42509 5.58215108 126.581682 6.41956668 125.116579 2.72869609 125.960251 1.89128049"></polygon>
                            <g transform="translate(126.581734, 5.121927)">
                                <mask id="mask-29" fill="white">
                                    <use xlink:href="#path-28"></use>
                                </mask>
                                <g id="Clip-63"></g>
                                <path d="M3.37279168,-2.62266083e-05 L2.52938311,0.837389377 C1.71783605,0.895087916 0.861524876,1.04510412 -5.26636638e-05,1.29766635 L0.843355912,0.46025075 C1.70519677,0.207688511 2.56124462,0.0576723117 3.37279168,-2.62266083e-05" id="Fill-62" fill="#A3A3A4" mask="url(#mask-29)"></path>
                            </g>
                            <polygon id="Fill-64" fill="#9FA0A0" points="150.573957 46.3109985 149.730548 47.1484141 134.151057 7.83367917 134.994465 6.99626357"></polygon>
                            <polygon id="Fill-66" fill="#9FA0A0" points="148.456351 58.6604265 147.612942 59.4975798 126.579338 6.42016989 127.42301 5.58275429"></polygon>
                            <g transform="translate(146.597087, 58.660400)">
                                <mask id="mask-31" fill="white">
                                    <use xlink:href="#path-30"></use>
                                </mask>
                                <g id="Clip-69"></g>
                                <path d="M0.843540235,6.12588004 L0.000131659159,6.96303338 C1.45944178,5.51427553 1.93236148,3.15020906 1.01575042,0.837284471 L1.85915899,0.000131133042 C2.77577006,2.31279346 2.30311368,4.67685993 0.843540235,6.12588004" id="Fill-68" fill="#A3A3A4" mask="url(#mask-31)"></path>
                            </g>
                            <g transform="translate(145.599900, 67.111925)">
                                <mask id="mask-33" fill="white">
                                    <use xlink:href="#path-32"></use>
                                </mask>
                                <g id="Clip-71"></g>
                                <path d="M3.84299921,-7.8679825e-05 L2.99959063,0.837074658 C2.19357326,1.63751074 1.18322087,2.24832845 -0.000131659159,2.59530648 L0.843276916,1.75789088 C2.02662944,1.41117511 3.03698183,0.80009514 3.84299921,-7.8679825e-05" id="Fill-70" fill="#A3A3A4" mask="url(#mask-33)"></path>
                            </g>
                            <polygon id="Fill-72" fill="#9FA0A0" points="169.343497 93.6760171 168.500089 94.5131705 149.730496 47.1484404 150.573904 46.3110247"></polygon>
                            <g transform="translate(167.515884, 93.676070)">
                                <mask id="mask-35" fill="white">
                                    <use xlink:href="#path-34"></use>
                                </mask>
                                <g id="Clip-75"></g>
                                <path d="M0.843382244,2.89741078 L-2.63318319e-05,3.73456412 C0.943706523,2.79774967 1.34763682,1.75471746 0.984257544,0.837310698 L1.82766612,-0.000104906433 C2.1910454,0.917039587 1.7871151,1.96059633 0.843382244,2.89741078" id="Fill-74" fill="#A3A3A4" mask="url(#mask-35)"></path>
                            </g>
                            <g transform="translate(170.032154, 99.525915)">
                                <mask id="mask-37" fill="white">
                                    <use xlink:href="#path-36"></use>
                                </mask>
                                <g id="Clip-77"></g>
                                <path d="M4.85156103,0.000131133042 L4.00815246,0.837284471 C3.10233744,1.73659487 1.69937743,2.53781776 0.000184322823,3.03586105 L0.843592898,2.19844544 C2.54278601,1.70040215 3.94600933,0.899179267 4.85156103,0.000131133042" id="Fill-76" fill="#A3A3A4" mask="url(#mask-37)"></path>
                            </g>
                            <polygon id="Fill-78" fill="#9FA0A0" points="74.0367746 21.2292341 73.193366 22.0666497 71.7303694 18.3749923 72.5740413 17.537839"></polygon>
                            <polygon id="Fill-80" fill="#9FA0A0" points="76.4830281 20.5122249 75.6396195 21.3496405 73.1933924 22.0666759 74.0368009 21.2292603"></polygon>
                            <polygon id="Fill-82" fill="#F3F3F3" points="75.0202422 16.8207773 76.4829755 20.5121724 74.0367483 21.2292079 72.574015 17.5378127"></polygon>
                            <polygon id="Fill-84" fill="#9FA0A0" points="146.443282 68.8698419 145.599874 69.7069952 105.502023 81.4591384 106.345432 80.6217228"></polygon>
                            <polygon id="Fill-86" fill="#9FA0A0" points="95.1229633 74.4401899 94.2795547 75.2776055 73.193287 22.0667022 74.0366956 21.2292866"></polygon>
                            <path d="M127.423037,5.58278051 C128.286984,5.32969374 129.143032,5.17941528 129.954579,5.12197901 L150.940786,58.0811069 C152.79797,62.7670151 150.785691,67.5971695 146.443309,68.8699468 L106.345458,80.6215655 C102.005446,81.8938182 96.9800157,79.1261243 95.1228316,74.4402162 L74.0368273,21.2293128 L76.4830545,20.5122773 L97.5163951,73.5899495 C98.77611,76.769139 102.183186,78.6461773 105.128138,77.7833219 L145.406361,65.9784632 C148.35105,65.1153456 149.716092,61.8396422 148.456377,58.6604527 L127.423037,5.58278051 Z" id="Fill-88" fill="#F3F3F3"></path>
                            <g transform="translate(94.279423, 74.440164)">
                                <mask id="mask-39" fill="white">
                                    <use xlink:href="#path-38"></use>
                                </mask>
                                <g id="Clip-91"></g>
                                <path d="M12.0660617,6.18145422 L11.2226531,7.01886983 C6.88237723,8.29086033 1.85694712,5.52342862 2.63318319e-05,0.83752051 L0.843434907,0.000104906433 C2.70061901,4.68601302 7.72604913,7.45370699 12.0660617,6.18145422" id="Fill-90" fill="#A3A3A4" mask="url(#mask-39)"></path>
                            </g>
                            <g transform="translate(23.461162, 40.081209)">
                                <mask id="mask-41" fill="white">
                                    <use xlink:href="#path-40"></use>
                                </mask>
                                <g id="Clip-93"></g>
                                <path d="M4.55354732,3.16903976 L3.71013875,4.00645537 C3.50264391,4.21233424 3.24116882,4.37021843 2.93440298,4.46017569 C1.84821491,4.77856672 0.605879086,4.12395057 0.159817853,2.99830454 C-0.160113904,2.19078727 0.0165726879,1.35992832 0.542946007,0.837232018 L1.38635458,7.8679825e-05 C0.859981263,0.522512718 0.683294671,1.35337167 1.00348975,2.16088894 C1.44955098,3.28653497 2.69162349,3.94115111 3.77781156,3.62276009 C4.0845774,3.53306509 4.34631581,3.37491864 4.55354732,3.16903976" id="Fill-92" fill="#A3A4A4" mask="url(#mask-41)"></path>
                            </g>
                            <path d="M25.6233845,39.6273047 C26.7095725,39.3089137 27.951645,39.9635299 28.3977063,41.0894382 C28.8437675,42.2150842 28.3250304,43.38584 27.2388424,43.7039687 C26.1529176,44.0223598 24.9105818,43.3677436 24.4645205,42.2420976 C24.0184593,41.1164516 24.5371964,39.9456958 25.6233845,39.6273047" id="Fill-94" fill="#FBFBFB"></path>
                            <g transform="translate(17.351534, 41.871699)">
                                <mask id="mask-43" fill="white">
                                    <use xlink:href="#path-42"></use>
                                </mask>
                                <g id="Clip-97"></g>
                                <path d="M4.55374332,3.16919712 L3.71033475,4.00635046 C3.50283991,4.2124916 3.24136482,4.37037579 2.93433566,4.46033305 C1.84841091,4.77872408 0.606075084,4.12410793 0.160013852,2.99819964 C-0.159917906,2.19068237 0.0167686862,1.36008568 0.543142006,0.837389377 L1.38655058,-2.62266083e-05 C0.860177262,0.522670077 0.68349067,1.35326676 1.00368575,2.1610463 C1.44948366,3.28669233 2.69181949,3.94130847 3.77800755,3.62291745 C4.0847734,3.53296018 4.34624849,3.375076 4.55374332,3.16919712" id="Fill-96" fill="#A3A4A4" mask="url(#mask-43)"></path>
                            </g>
                            <path d="M19.5139518,41.4178215 C20.6001399,41.0996928 21.8422124,41.7540466 22.2882736,42.8799549 C22.7343349,44.005601 22.2155978,45.1763568 21.1294097,45.4944855 C20.0432216,45.8128765 18.8011491,45.1582604 18.3550879,44.0326144 C17.9090267,42.9069683 18.4277638,41.7362126 19.5139518,41.4178215" id="Fill-98" fill="#FBFBFB"></path>
                            <polygon id="Fill-100" fill="#9FA0A0" points="74.0367746 21.2292341 73.193366 22.0666497 11.3841304 40.1816303 12.2278023 39.3442147"></polygon>
                            <g transform="translate(7.376215, 39.344241)">
                                <mask id="mask-45" fill="white">
                                    <use xlink:href="#path-44"></use>
                                </mask>
                                <g id="Clip-103"></g>
                                <path d="M4.85148204,-7.8679825e-05 L4.00807346,0.837336924 C2.30861703,1.33538022 0.905657026,2.1366031 0.000105327328,3.03565123 L0.843513903,2.19823563 C1.74932892,1.2991875 3.15228892,0.497964612 4.85148204,-7.8679825e-05" id="Fill-102" fill="#A3A3A4" mask="url(#mask-45)"></path>
                            </g>
                            <path d="M13.4064677,43.20784 C14.4926558,42.889449 15.7347283,43.5440651 16.1807896,44.6699734 C16.6268508,45.7956194 16.1081137,46.9663752 15.0219256,47.284504 C13.9360009,47.602895 12.6936651,46.9482789 12.2476038,45.8226328 C11.8015426,44.6967246 12.3202797,43.526231 13.4064677,43.20784" id="Fill-104" fill="#FBFBFB"></path>
                            <g transform="translate(11.244316, 43.661665)">
                                <mask id="mask-47" fill="white">
                                    <use xlink:href="#path-46"></use>
                                </mask>
                                <g id="Clip-107"></g>
                                <path d="M4.55360865,3.16911844 L3.70993676,4.00653405 C3.50270524,4.21241292 3.24123015,4.37029711 2.93420099,4.46025437 C1.84827624,4.7786454 0.605940412,4.12402925 0.15987918,2.99838322 C-0.160052578,2.19060369 0.0166340145,1.360007 0.543007334,0.837310698 L1.38641591,0.00015735965 C0.86004259,0.522591398 0.683355998,1.35345035 1.00328776,2.16096762 C1.44934899,3.28661365 2.69168482,3.94122979 3.77760956,3.62283877 C4.08463872,3.5328815 4.34611381,3.37499732 4.55360865,3.16911844" id="Fill-106" fill="#A3A4A4" mask="url(#mask-47)"></path>
                            </g>
                            <g transform="translate(0.000000, 39.257169)">
                                <mask id="mask-49" fill="white">
                                    <use xlink:href="#path-48"></use>
                                </mask>
                                <g id="Clip-109"></g>
                                <path d="M0.975736543,2.89712229 L0.132327967,3.73427563 C-0.231051313,2.8173934 0.173142306,1.77436119 1.11687516,0.837284471 L1.96028374,0.000131133042 C1.01655088,0.936945583 0.612357262,1.9799778 0.975736543,2.89712229" id="Fill-108" fill="#A3A3A4" mask="url(#mask-49)"></path>
                            </g>
                            <polygon id="Fill-110" fill="#9FA0A0" points="19.7452506 89.5192046 18.9018421 90.3566202 0.132248971 42.9916278 0.975657547 42.1542122"></polygon>
                            <polygon id="Fill-112" fill="#9FA0A0" points="170.875694 101.724308 170.032285 102.561723 45.2428374 139.134991 46.086246 138.297575"></polygon>
                            <polygon id="Fill-114" fill="#9FA0A0" points="38.5147911 136.884092 37.6713825 137.721508 18.9017894 90.3567776 19.745198 89.5190997"></polygon>
                            <g transform="translate(37.671251, 136.884145)">
                                <mask id="mask-51" fill="white">
                                    <use xlink:href="#path-50"></use>
                                </mask>
                                <g id="Clip-117"></g>
                                <path d="M8.4151005,1.41348306 L7.57169193,2.25063639 C4.10352635,3.26717973 0.712513039,2.63459394 -2.63318319e-05,0.837546737 L0.843645562,-0.000131133042 C1.55592161,1.7974406 4.94719824,2.43002639 8.4151005,1.41348306" id="Fill-116" fill="#A3A3A4" mask="url(#mask-51)"></path>
                            </g>
                            <g transform="translate(0.843522, 0.000000)">
                                <mask id="mask-53" fill="white">
                                    <use xlink:href="#path-52"></use>
                                </mask>
                                <g id="Clip-119"></g>
                                <path d="M129.913677,0.48537692 C133.383686,-0.531690951 136.772856,0.10168164 137.485132,1.89872884 L156.254725,49.2637212 L175.024318,96.6287136 C175.736595,98.4260231 173.502339,100.707213 170.032066,101.724281 L45.242882,138.297549 C41.7747164,139.314092 38.3834398,138.681506 37.6711637,136.884197 L18.9018339,89.5192046 L0.132240836,42.1542122 C-0.580035217,40.3569028 1.65632727,38.0751878 5.12422953,37.0586445 L71.7305983,17.5379177 L73.1933316,21.2293128 L11.3840959,39.3442934 C7.91408712,40.361099 5.67983118,42.6425517 6.39210723,44.4398612 L21.9715989,83.7545961 L40.741192,131.119588 C41.453468,132.916898 44.8426381,133.550008 48.3126469,132.53294 L163.509935,98.770903 C166.977837,97.7543596 169.212357,95.4731692 168.500081,93.676122 L149.730487,46.3108674 L134.150996,6.99613244 C133.615406,5.64441304 131.567843,4.95203058 129.111083,5.12197901 L127.548552,1.17854618 L129.913677,0.48537692 Z" id="Fill-118" fill="#F3F3F3" mask="url(#mask-53)"></path>
                            </g>
                        </g>
                        <g id="编组" transform="translate(55.061453, 30.480447)">
                            <g transform="translate(0.000000, 0.153676)">
                                <mask id="mask-55" fill="white">
                                    <use xlink:href="#path-54"></use>
                                </mask>
                                <g id="Clip-121"></g>
                                <path d="M0.801117716,0.795687011 L0.0544827338,1.62108526 C-0.052012955,1.3211285 0.00298263045,1.01367283 0.172863062,0.825682687 L0.919498044,2.5858341e-05 C0.749384581,0.188015998 0.694388995,0.495730256 0.801117716,0.795687011" id="Fill-120" fill="#A3A3A4" mask="url(#mask-55)"></path>
                            </g>
                            <polygon id="Fill-122" fill="#9FA0A0" points="2.06548021 4.50400584 1.31884523 5.32966267 0.0546458563 1.77491653 0.801047807 0.949259699"></polygon>
                            <path d="M1.15465078,0 L2.94969737,5.04677242 C2.60783922,5.15822187 2.21191761,4.91567063 2.06557342,4.50400584 L0.801141019,0.949259699 C0.654563802,0.53759491 0.812792627,0.111708033 1.15465078,0" id="Fill-124" fill="#F3F3F3"></path>
                            <g transform="translate(1.318962, 4.504083)">
                                <mask id="mask-57" fill="white">
                                    <use xlink:href="#path-56"></use>
                                </mask>
                                <g id="Clip-127"></g>
                                <path d="M1.63075893,0.542585569 L0.884356978,1.3682424 C0.542498826,1.47995043 0.146344185,1.23739919 0,0.82547582 L0.746634982,-0.000181008387 C0.892979168,0.411742364 1.28890078,0.654293603 1.63075893,0.542585569" id="Fill-126" fill="#A3A3A4" mask="url(#mask-57)"></path>
                            </g>
                        </g>
                        <g id="编组" transform="translate(58.011173, 38.346369)">
                            <g transform="translate(0.000000, 0.163504)">
                                <mask id="mask-59" fill="white">
                                    <use xlink:href="#path-58"></use>
                                </mask>
                                <g id="Clip-129"></g>
                                <path d="M0.877383137,0.838893395 L0.0596267258,1.71264947 C-0.0570497275,1.3957658 0.00320332059,1.07204096 0.188813346,0.873372965 L1.00682507,-0.00010945895 C0.820959732,0.198284888 0.760706683,0.522009734 0.877383137,0.838893395" id="Fill-128" fill="#A3A3A4" mask="url(#mask-59)"></path>
                            </g>
                            <polygon id="Fill-130" fill="#9FA0A0" points="3.94645895 9.336739 3.12870253 10.2104951 0.0596267258 1.87601695 0.877383137 1.00226088"></polygon>
                            <path d="M1.26558127,0 L4.91599687,9.91342348 C4.5417131,10.0313655 4.10692098,9.77249508 3.94633129,9.33684846 L0.877255482,1.00237034 C0.7169211,0.566723715 0.891042196,0.118215666 1.26558127,0" id="Fill-132" fill="#F3F3F3"></path>
                            <g transform="translate(3.128779, 9.336712)">
                                <mask id="mask-61" fill="white">
                                    <use xlink:href="#path-60"></use>
                                </mask>
                                <g id="Clip-135"></g>
                                <path d="M1.78729433,0.576602386 L0.969537924,1.45035846 C0.59499885,1.56857412 0.160206727,1.30943006 -0.000127654763,0.873783436 L0.817628756,2.73647376e-05 C0.978218448,0.435673987 1.41275526,0.694818052 1.78729433,0.576602386" id="Fill-134" fill="#A3A3A4" mask="url(#mask-61)"></path>
                            </g>
                        </g>
                    </g>
                </g>
            </g>
        </g>
    </g>
</svg>