<?xml version="1.0" encoding="UTF-8"?>
<svg width="168px" height="184px" viewBox="0 0 168 184" version="1.1" xmlns="http://www.w3.org/2000/svg" xmlns:xlink="http://www.w3.org/1999/xlink">
    <title>learning/icon</title>
    <defs>
        <filter id="filter-1">
            <feColorMatrix in="SourceGraphic" type="matrix" values="0 0 0 0 0.631373 0 0 0 0 0.631373 0 0 0 0 0.631373 0 0 0 1.000000 0"></feColorMatrix>
        </filter>
        <path d="M0.978525062,0 C1.14276303,0.427503709 1.04660051,0.873501755 0.774060691,1.13194826 L0,1.86603117 C0.272539819,1.60758466 0.368940366,1.16134951 0.204702397,0.733845802" id="path-2"></path>
        <path d="M2.31718353,0 L1.54312284,0.734082908 C1.12348292,1.13218536 0.603634045,1.43568217 0,1.60782177 L0.773822665,0.874213076" id="path-4"></path>
        <path d="M1.10539294,1.34779658e-14 L0.331570278,0.733845802 C0.203274241,0.770597368 0.0916400265,0.836275975 0,0.923057094 L0.773822665,0.189211292" id="path-6"></path>
        <path d="M1.97138366,0 C0.829572731,1.08310424 0.429927006,2.86425114 1.09830413,4.60414145 L0.324481469,5.33822435 C-0.34389566,3.59833405 0.0557500663,1.81695004 1.19756099,0.734082908" id="path-8"></path>
        <path d="M0.773822665,0 C1.6880807,2.37936757 4.25804788,3.7929988 6.50620385,3.15067626 L5.73214316,3.88475916 C3.48422521,4.5268446 0.914020004,3.11345047 0,0.734082908" id="path-10"></path>
        <path d="M0.979467646,0 C1.14322797,0.426329368 1.04682836,0.873524689 0.773815144,1.1324522 L0,1.86631727 C0.273013217,1.60762687 0.369412828,1.16019444 0.205414478,0.733627955" id="path-12"></path>
        <path d="M2.31906519,1.34783197e-14 L1.54501203,0.734102182 C1.12490014,1.1324522 0.604580272,1.43643121 -2.70601651e-14,1.60928666 L0.773815144,0.875184481" id="path-14"></path>
        <path d="M1.10466813,1.34783197e-14 L0.330852984,0.734102182 C0.202796217,0.7706176 0.0916391358,0.836060818 0,0.922844215 L0.774053167,0.188979147" id="path-16"></path>
        <path d="M1.97257179,0 C0.830533937,1.08313268 0.430178024,2.86385212 1.09783458,4.60212831 L0.323781417,5.33599338 C-0.343875143,3.5979543 0.0564807691,1.81699774 1.19875665,0.733865069" id="path-18"></path>
        <path d="M0.773815144,0 C1.68711219,2.37753313 4.25919661,3.79049014 6.50733073,3.14815073 L5.73327757,3.88225291 C3.48538147,4.52435521 0.913297049,3.1113982 0,0.734102182" id="path-20"></path>
        <path d="M2.10279419,0.746676389 L1.32436287,1.4829173 C1.11939909,0.950949949 0.512888313,0.624920787 0,0.770932388 L0.778431328,0.0349292848" id="path-22"></path>
        <path d="M0.991536182,0 C1.14142791,0.389047198 1.04277712,0.799496748 0.778431328,1.04942866 L0,1.78566957 C0.264106353,1.53573766 0.362996584,1.1248125 0.213104854,0.736240907" id="path-24"></path>
        <path d="M2.35373115,0 L1.57529982,0.736003104 C1.14789289,1.14003195 0.617046303,1.44893923 -2.72215921e-14,1.62491412 L0.778431328,0.888673214" id="path-26"></path>
        <path d="M1.13352627,0 L0.355094943,0.736003104 C0.217175397,0.775478553 0.0974535683,0.845630706 -3.40269902e-15,0.937423016 L0.778670772,0.201419912" id="path-28"></path>
        <path d="M1.97940838,2.70351746e-14 C0.841332684,1.0763005 0.437151792,2.82677509 1.09394574,4.53182913 L0.315514414,5.26783223 C-0.34151898,3.56277819 0.0629013565,1.8120658 1.20097706,0.736240907" id="path-30"></path>
        <polygon id="path-32" points="-3.40269902e-15 0 155.306639 0 155.306639 124.370365 -3.40269902e-15 124.370365"></polygon>
        <path d="M0.778431328,0 C1.68137336,2.34331974 4.25563211,3.72686289 6.51550134,3.08336551 L5.73683057,3.81936861 C3.47696134,4.46286599 0.902942029,3.07956064 0,0.7357653" id="path-34"></path>
    </defs>
    <g id="页面-2" stroke="none" stroke-width="1" fill="none" fill-rule="evenodd">
        <g id="首頁" transform="translate(-952.000000, -584.000000)">
            <g id="desgin-Category" transform="translate(268.000000, 545.000000)">
                <g id="learning/icon" transform="translate(632.000000, 0.000000)" filter="url(#filter-1)">
                    <g transform="translate(52.000000, 39.000000)">
                        <g id="编组" transform="translate(0.000000, 85.787234)">
                            <polygon id="Fill-1" fill="#9FA0A0" points="152.62673 59.7124994 151.852908 60.4465823 143.85309 39.6226703 144.626913 38.8890616"></polygon>
                            <g transform="translate(151.648110, 59.712594)">
                                <mask id="mask-3" fill="white">
                                    <use xlink:href="#path-2"></use>
                                </mask>
                                <g id="Clip-4"></g>
                                <path d="M0.773965481,1.13194826 L0.000142815626,1.86603117 C0.272682635,1.60758466 0.368845156,1.16134951 0.204607186,0.733845802 L0.978667878,0 C1.14290585,0.427503709 1.0465053,0.873501755 0.773965481,1.13194826" id="Fill-3" fill="#A3A4A4" mask="url(#mask-3)"></path>
                            </g>
                            <g transform="translate(152.569747, 63.421657)">
                                <mask id="mask-5" fill="white">
                                    <use xlink:href="#path-4"></use>
                                </mask>
                                <g id="Clip-6"></g>
                                <path d="M2.31708832,2.37106883e-05 L1.54326565,0.734106619 C1.12338771,1.13197197 0.60377686,1.43570588 0.000142815626,1.60784548 L0.773965481,0.874236787 C1.37759953,0.701622976 1.8974484,0.398126167 2.31708832,2.37106883e-05" id="Fill-5" fill="#A3A4A4" mask="url(#mask-5)"></path>
                            </g>
                            <polygon id="Fill-7" fill="#9FA0A0" points="15.7644454 3.26183196 14.9906227 3.99591487 3.99477164 7.13663264 4.76883233 6.40254973"></polygon>
                            <g transform="translate(3.663273, 6.402668)">
                                <mask id="mask-7" fill="white">
                                    <use xlink:href="#path-6"></use>
                                </mask>
                                <g id="Clip-10"></g>
                                <path d="M1.10548815,-9.4842753e-05 L0.331665488,0.733988066 C0.203131425,0.770502526 0.0917352369,0.836181132 9.52104171e-05,0.923199358 L0.773917876,0.189353556 C0.865557902,0.102335331 0.977192116,0.036656724 1.10548815,-9.4842753e-05" id="Fill-9" fill="#A3A4A4" mask="url(#mask-7)"></path>
                            </g>
                            <g transform="translate(0.000000, 4.015002)">
                                <mask id="mask-9" fill="white">
                                    <use xlink:href="#path-8"></use>
                                </mask>
                                <g id="Clip-12"></g>
                                <path d="M1.09842315,4.60421258 L0.324600482,5.33829549 C-0.343776647,3.59840518 0.0556310533,1.81702117 1.19768001,0.73415404 L1.97150267,7.11320648e-05 C0.829691744,1.08293826 0.430046019,2.86432227 1.09842315,4.60421258" id="Fill-11" fill="#A3A4A4" mask="url(#mask-9)"></path>
                            </g>
                            <polygon id="Fill-13" fill="#9FA0A0" points="153.343617 64.2957991 152.569794 65.0296449 38.7278888 97.5471941 39.5019495 96.8133483"></polygon>
                            <polygon id="Fill-15" fill="#9FA0A0" points="33.7695922 93.6625535 32.9957695 94.3966364 0.324552876 9.35327375 1.09837554 8.61919084"></polygon>
                            <g transform="translate(32.995698, 93.662506)">
                                <mask id="mask-11" fill="white">
                                    <use xlink:href="#path-10"></use>
                                </mask>
                                <g id="Clip-18"></g>
                                <path d="M6.50615625,3.15074739 L5.73233358,3.8848303 C3.48417761,4.52691573 0.913972399,3.11352161 0.000190420834,0.73415404 L0.77377506,7.11320648e-05 C1.68803309,2.3794387 4.2582383,3.79306993 6.50615625,3.15074739" id="Fill-17" fill="#A3A4A4" mask="url(#mask-11)"></path>
                            </g>
                            <path d="M14.5113335,0 L15.7645406,3.26187938 L4.76868952,6.40259715 C4.25883773,6.54818078 4.01319486,7.15280333 4.23265487,7.72399381 L36.9036335,92.7673565 C37.1233315,93.3387841 37.7388668,93.6970526 38.2487186,93.5514689 L152.090386,61.0339197 C152.600476,60.8883361 152.846119,60.2839507 152.626659,59.7125231 L144.62708,38.8890853 L147.761169,37.9937698 L155.760748,58.8172075 C156.675006,61.1968122 155.589845,63.6541879 153.343593,64.2957991 L39.5019257,96.8133483 C37.2537698,97.4556709 34.6838026,96.0420396 33.7695445,93.662435 L1.09832794,8.61930939 C0.184307932,6.23970472 1.26756445,3.7828032 3.51572043,3.14071777 L14.5113335,0 Z" id="Fill-19" fill="#FBFBFB"></path>
                        </g>
                        <g id="编组" transform="translate(5.957447, 57.191489)">
                            <polygon id="Fill-21" fill="#9FA0A0" points="152.625312 59.7140434 151.851496 60.4479085 143.851757 39.6236869 144.625572 38.8900589"></polygon>
                            <g transform="translate(151.645939, 59.714162)">
                                <mask id="mask-13" fill="white">
                                    <use xlink:href="#path-12"></use>
                                </mask>
                                <g id="Clip-24"></g>
                                <path d="M0.773886551,1.13242849 L7.14071188e-05,1.86629356 C0.273084625,1.60760316 0.369246211,1.16017072 0.205485885,0.733604244 L0.979301029,-2.37113108e-05 C1.14329938,0.426305656 1.04666174,0.873500978 0.773886551,1.13242849" id="Fill-23" fill="#A3A4A4" mask="url(#mask-13)"></path>
                            </g>
                            <g transform="translate(152.567567, 63.420240)">
                                <mask id="mask-15" fill="white">
                                    <use xlink:href="#path-14"></use>
                                </mask>
                                <g id="Clip-26"></g>
                                <path d="M2.31896998,9.48452431e-05 L1.54515484,0.734197027 C1.12504296,1.13230993 0.604485063,1.43652605 -9.52094917e-05,1.60914439 L0.773957958,0.875042213 C1.37830021,0.702660984 1.8988581,0.398681979 2.31896998,9.48452431e-05" id="Fill-25" fill="#A3A4A4" mask="url(#mask-15)"></path>
                            </g>
                            <polygon id="Fill-27" fill="#9FA0A0" points="15.7636429 3.26006812 14.9898277 3.99393319 3.99598771 7.13425919 4.76980285 6.400157"></polygon>
                            <g transform="translate(3.665159, 6.400228)">
                                <mask id="mask-17" fill="white">
                                    <use xlink:href="#path-16"></use>
                                </mask>
                                <g id="Clip-30"></g>
                                <path d="M1.10476334,-4.74226215e-05 L0.330948193,0.734054759 C0.202891427,0.770570178 0.0914963215,0.836013395 9.52094917e-05,0.923033906 L0.773910353,0.188931724 C0.865549489,0.10238544 0.976706571,0.036467996 1.10476334,-4.74226215e-05" id="Fill-29" fill="#A3A4A4" mask="url(#mask-17)"></path>
                            </g>
                            <g transform="translate(0.000000, 4.015345)">
                                <mask id="mask-19" fill="white">
                                    <use xlink:href="#path-18"></use>
                                </mask>
                                <g id="Clip-32"></g>
                                <path d="M1.09776318,4.60222315 L0.323948034,5.33608822 C-0.343946551,3.59804914 0.056409362,1.81709259 1.19868524,0.733959914 L1.97250038,9.48452431e-05 C0.830462529,1.08299041 0.430106617,2.86394696 1.09776318,4.60222315" id="Fill-31" fill="#A3A4A4" mask="url(#mask-19)"></path>
                            </g>
                            <polygon id="Fill-33" fill="#9FA0A0" points="153.341477 64.2953769 152.567662 65.0294791 38.7287673 97.5471707 39.5025825 96.8133056"></polygon>
                            <polygon id="Fill-35" fill="#9FA0A0" points="33.7693049 93.6649889 32.9954897 94.3990911 0.323876627 9.35136159 1.09769177 8.61749652"></polygon>
                            <g transform="translate(32.995395, 93.664965)">
                                <mask id="mask-21" fill="white">
                                    <use xlink:href="#path-20"></use>
                                </mask>
                                <g id="Clip-38"></g>
                                <path d="M6.50728313,3.14824558 L5.73346799,3.88234776 C3.48533386,4.52445005 0.913487468,3.11149305 -4.76047458e-05,0.733959914 L0.774005563,9.48452431e-05 C1.68730261,2.37762798 4.25914901,3.79058499 6.50728313,3.14824558" id="Fill-37" fill="#A3A4A4" mask="url(#mask-21)"></path>
                            </g>
                            <path d="M14.5112334,0 L15.7637143,3.26006812 L4.76987426,6.400157 C4.26002743,6.54574445 4.01486299,7.15227978 4.2336068,7.72158835 L36.9052199,92.7693178 C37.1239637,93.3386264 37.7404452,93.6990383 38.250292,93.5534509 L152.088949,61.0355222 C152.599034,60.8899347 152.84396,60.2833994 152.625216,59.7140908 L144.625715,38.8901064 L147.761439,37.9940559 L155.761179,58.8182775 C156.674714,61.1958106 155.589564,63.6532509 153.34143,64.2953532 L39.5027729,96.8132819 C37.2546388,97.4556213 34.6825543,96.0426643 33.7692573,93.6648941 L1.09764417,8.61763879 C0.184347116,6.23986854 1.2694973,3.7824283 3.5173934,3.140326 L14.5112334,0 Z" id="Fill-39" fill="#FBFBFB"></path>
                        </g>
                        <g id="编组" transform="translate(11.914894, 0.000000)">
                            <g transform="translate(118.556144, 3.394203)">
                                <mask id="mask-23" fill="white">
                                    <use xlink:href="#path-22"></use>
                                </mask>
                                <g id="Clip-42"></g>
                                <path d="M2.10288997,0.746795291 L1.32445864,1.4830362 C1.11949487,0.950831047 0.512744646,0.624801885 -0.000143666194,0.77105129 L0.778287662,0.0350481867 C1.29141542,-0.110963414 1.8979262,0.215065747 2.10288997,0.746795291" id="Fill-41" fill="#A3A4A4" mask="url(#mask-23)"></path>
                            </g>
                            <polygon id="Fill-43" fill="#9FA0A0" points="152.617292 87.079036 151.83886 87.8152769 119.880555 4.8771204 120.658986 4.1408795"></polygon>
                            <g transform="translate(151.625708, 87.079036)">
                                <mask id="mask-25" fill="white">
                                    <use xlink:href="#path-24"></use>
                                </mask>
                                <g id="Clip-46"></g>
                                <path d="M0.77833555,1.04945244 L-9.57774627e-05,1.78569335 C0.26425002,1.53576144 0.362900806,1.12483628 0.213009077,0.736264688 L0.991679849,2.37803911e-05 C1.14133213,0.389070978 1.04268135,0.799520528 0.77833555,1.04945244" id="Fill-45" fill="#A3A4A4" mask="url(#mask-25)"></path>
                            </g>
                            <g transform="translate(152.530326, 90.710777)">
                                <mask id="mask-27" fill="white">
                                    <use xlink:href="#path-26"></use>
                                </mask>
                                <g id="Clip-48"></g>
                                <path d="M2.35373115,-0.000118901955 L1.57529982,0.736122006 C1.14789289,1.14015085 0.617046303,1.44905813 -2.72215921e-14,1.62479522 L0.778431328,0.888554312 C1.39547763,0.713055026 1.92632422,0.403909942 2.35373115,-0.000118901955" id="Fill-47" fill="#A3A4A4" mask="url(#mask-27)"></path>
                            </g>
                            <polygon id="Fill-49" fill="#9FA0A0" points="119.334504 3.42920373 118.556072 4.16520684 4.03639701 36.7781108 4.81506778 36.0423455"></polygon>
                            <g transform="translate(3.681374, 36.042274)">
                                <mask id="mask-29" fill="white">
                                    <use xlink:href="#path-28"></use>
                                </mask>
                                <g id="Clip-52"></g>
                                <path d="M1.1335981,-2.37803911e-05 L0.355166776,0.735979323 C0.217007786,0.775454772 0.0972859577,0.845606926 7.1833097e-05,0.937399236 L0.778742605,0.201396132 C0.875956729,0.109366019 0.995678558,0.0392138649 1.1335981,-2.37803911e-05" id="Fill-51" fill="#A3A4A4" mask="url(#mask-29)"></path>
                            </g>
                            <g transform="translate(0.000000, 33.659241)">
                                <mask id="mask-31" fill="white">
                                    <use xlink:href="#path-30"></use>
                                </mask>
                                <g id="Clip-54"></g>
                                <path d="M1.09399363,4.53182913 L0.315562303,5.26783223 C-0.341471091,3.56277819 0.0627098016,1.8120658 1.2007855,0.736240907 L1.97945627,2.70351746e-14 C0.841380573,1.0763005 0.436960237,2.82677509 1.09399363,4.53182913" id="Fill-53" fill="#A3A4A4" mask="url(#mask-31)"></path>
                            </g>
                            <polygon id="Fill-55" fill="#9FA0A0" points="153.308853 91.599403 152.530422 92.3356439 38.0107462 124.948548 38.7894169 124.212783"></polygon>
                            <polygon id="Fill-57" fill="#9FA0A0" points="33.0521314 121.129132 32.2737001 121.865135 0.315394693 38.9269782 1.09406546 38.1909751"></polygon>
                            <g transform="translate(0.778467, 0.000000)">
                                <mask id="mask-33" fill="white">
                                    <use xlink:href="#path-32"></use>
                                </mask>
                                <g id="Clip-60"></g>
                                <path d="M151.838824,87.079036 L119.880519,4.1408795 C119.675555,3.60914995 119.069044,3.28312079 118.556156,3.42913239 L4.03648062,36.0422741 C3.52335286,36.1882857 3.26331705,36.7611553 3.46828082,37.2931227 L35.4263468,120.231279 C35.63155,120.763009 36.2380608,121.089276 36.7509491,120.943026 L151.270625,88.3301224 C151.783513,88.183873 152.043788,87.6110034 151.838824,87.079036 L151.838824,87.079036 Z M117.295485,0.157426189 C119.554876,-0.48583339 122.129613,0.898185371 123.033274,3.24316973 L154.991579,86.1813263 C155.894521,88.524646 154.789967,90.956191 152.530338,91.5994506 L38.0109016,124.212592 C35.7510324,124.85609 33.1767736,123.472547 32.2735922,121.129227 L0.315526191,38.1910703 C-0.588134169,35.8458481 0.515940532,33.4143031 2.77580976,32.7708057 L117.295485,0.157426189 Z" id="Fill-59" fill="#FBFBFB" mask="url(#mask-33)"></path>
                            </g>
                            <g transform="translate(32.273820, 121.129227)">
                                <mask id="mask-35" fill="white">
                                    <use xlink:href="#path-34"></use>
                                </mask>
                                <g id="Clip-62"></g>
                                <path d="M6.51550134,3.08346063 L5.73707001,3.81946373 C3.47720078,4.46296111 0.902942029,3.07941796 0,0.735860421 L0.778431328,-0.000142682346 C1.68137336,2.34341486 4.25563211,3.72695801 6.51550134,3.08346063" id="Fill-61" fill="#A3A4A4" mask="url(#mask-35)"></path>
                            </g>
                        </g>
                    </g>
                </g>
            </g>
        </g>
    </g>
</svg>